<?xml version="1.0" encoding="UTF-8"?>
<svg version="1.1" xmlns="http://www.w3.org/2000/svg" width="1000" height="1024">
<path d="M0 0 C330 0 660 0 1000 0 C1000 337.92 1000 675.84 1000 1024 C670 1024 340 1024 0 1024 C0 686.08 0 348.16 0 0 Z " fill="#3B4551" transform="translate(0,0)"/>
<path d="M0 0 C291.06 0 582.12 0 882 0 C882 173.91 882 347.82 882 527 C590.94 527 299.88 527 0 527 C0 353.09 0 179.18 0 0 Z " fill="#FEFEFE" transform="translate(59,111)"/>
<path d="M0 0 C0.33 0 0.66 0 1 0 C1.14695313 0.84820313 1.29390625 1.69640625 1.4453125 2.5703125 C4.20863268 17.02215944 9.41920398 28.704225 19 40 C19.61488281 40.72832031 20.22976562 41.45664062 20.86328125 42.20703125 C32.70812777 55.06642565 50.22609963 62.91993093 67.53008286 64.27680854 C71.39208535 64.38233986 75.2480098 64.39829065 79.11080647 64.37752342 C80.60143067 64.38065955 82.09205258 64.38510826 83.58266947 64.39073652 C87.66100925 64.40236116 91.73913444 64.39545937 95.81747052 64.38540266 C100.26122901 64.37776704 104.70495555 64.3875824 109.14870948 64.39513266 C116.9312251 64.40595321 124.71367826 64.40564796 132.49619675 64.39799118 C144.06929867 64.38663607 155.64234798 64.39244899 167.21544955 64.4016161 C187.88674714 64.41741051 208.5580169 64.41604515 229.22931713 64.40737936 C247.32100431 64.39983227 265.4126813 64.39786279 283.50436974 64.4014473 C284.70450313 64.40167645 285.90463652 64.40190561 287.1411376 64.40214171 C292.01292093 64.40307573 296.88470426 64.40403093 301.75648759 64.405021 C347.45960569 64.41419833 393.16270608 64.4058774 438.86582144 64.38973031 C479.46304736 64.37549619 520.06024504 64.37676505 560.6574707 64.39111328 C606.27254933 64.40718109 651.88761229 64.41354474 697.50269336 64.40427649 C702.36652322 64.40331435 707.23035309 64.40237583 712.09418297 64.4014473 C713.29177431 64.40121006 714.48936566 64.40097283 715.72324765 64.40072841 C733.80070488 64.39731734 751.87815079 64.40130437 769.95560646 64.40888596 C790.51475913 64.41746537 811.07387964 64.41531584 831.63302831 64.39904372 C843.13637874 64.39023917 854.6396595 64.38965361 866.14300811 64.40098225 C873.83078505 64.4077176 881.51850622 64.40350786 889.2062749 64.39046794 C893.58386589 64.38334448 897.96131864 64.38086458 902.33890519 64.39168589 C906.32966242 64.40145006 910.3201601 64.39715542 914.31089879 64.38214391 C915.73753275 64.37914871 917.16418872 64.38105047 918.59080498 64.38876172 C940.87203199 64.50054941 961.09689541 58.94388241 977.62109375 43.40234375 C990.06304669 30.83780999 995.68426815 17.01114603 999 0 C999.33 0 999.66 0 1000 0 C1000 111.87 1000 223.74 1000 339 C670 339 340 339 0 339 C0 227.13 0 115.26 0 0 Z " fill="#FEFEFE" transform="translate(0,685)"/>
<path d="M0 0 C19.8 0 39.6 0 60 0 C60 19.47 60 38.94 60 59 C93.66 59 127.32 59 162 59 C162 39.53 162 20.06 162 0 C181.8 0 201.6 0 222 0 C222.33 23.76 222.66 47.52 223 72 C228.94 73.32 234.88 74.64 241 76 C245.43658242 77.33953567 249.76867491 78.70154808 254.125 80.25 C255.23101563 80.63986084 256.33703125 81.02972168 257.4765625 81.43139648 C272.84318397 86.97060576 289.85493089 93.38568319 297.99609375 108.5546875 C299.83249726 113.02779488 300.08375541 116.36802258 298.1796875 120.9921875 C287.39899407 140.36727989 261.52453019 147.10046975 241.76367188 152.91967773 C224.60036498 157.74396752 207.07950385 160.40468668 189.4375 162.75 C188.63942932 162.85700226 187.84135864 162.96400452 187.019104 163.07424927 C184.67898104 163.38492585 182.33786516 163.68639967 179.99609375 163.984375 C179.32681351 164.07269089 178.65753326 164.16100677 177.9679718 164.2519989 C170.31029787 165.19930317 162.7485649 165.51571469 155 166 C305.48 166.33 455.96 166.66 611 167 C611 193.4 611 219.8 611 247 C281 247 -49 247 -389 247 C-389 220.6 -389 194.2 -389 167 C-238.52 166.67 -88.04 166.34 67 166 C53.635 165.01 53.635 165.01 40 164 C35.33358831 163.44414115 30.75168913 162.87456471 26.125 162.125 C24.45945068 161.86456909 24.45945068 161.86456909 22.76025391 161.59887695 C19.50403221 161.08157483 16.25176719 160.54452245 13 160 C12.06994141 159.84805176 11.13988281 159.69610352 10.18164062 159.53955078 C-17.07492891 155.02174942 -55.74281354 148.21592847 -74 125 C-76.95956142 120.51292301 -78.00683499 116.30524589 -77 111 C-72.21573913 98.15337359 -59.78559042 91.53670972 -48 86 C-37.48437445 81.50868164 -26.59314807 77.98508402 -15.5625 75 C-14.80026123 74.79213867 -14.03802246 74.58427734 -13.25268555 74.37011719 C-12.17047729 74.09409668 -12.17047729 74.09409668 -11.06640625 73.8125 C-10.44709229 73.65394531 -9.82777832 73.49539063 -9.18969727 73.33203125 C-6.15910876 72.8724928 -3.0652312 73 0 73 C0 48.91 0 24.82 0 0 Z " fill="#000000" transform="translate(389,777)"/>
<path d="M0 0 C102.3 0 204.6 0 310 0 C308 34 308 34 307 39 C306.81979399 40.58008718 306.66571904 42.16332948 306.53515625 43.74829102 C306.41998657 45.12241905 306.41998657 45.12241905 306.30249023 46.52430725 C306.22329346 47.50757492 306.14409668 48.49084259 306.0625 49.50390625 C305.97750244 50.53700424 305.89250488 51.57010223 305.80493164 52.63450623 C305.62533632 54.82742657 305.44723251 57.0204695 305.27050781 59.21362305 C305.00513572 62.49891992 304.73340463 65.7836443 304.4609375 69.06835938 C303.56991825 79.95441995 302.76617839 90.82824967 302.34155273 101.74378967 C302.18032153 105.6069213 301.78924334 109.22238567 301 113 C300.81114148 115.37906141 300.6602047 117.76126383 300.53515625 120.14453125 C300.45647383 121.55925 300.37769442 122.97396336 300.29882812 124.38867188 C300.1807691 126.5818546 300.06444346 128.77510858 299.95043945 130.96850586 C299.46445369 140.20434373 298.65947246 149.30678767 297.44360352 158.47583008 C296.83388174 163.31971218 296.56212096 168.12955107 296.34570312 173.00585938 C296.09667969 177.90332031 296.09667969 177.90332031 295 179 C292.13005352 179.09793898 289.28416945 179.12992291 286.4138031 179.12025452 C285.5023165 179.12110894 284.5908299 179.12196337 283.65172249 179.12284368 C280.57305266 179.12450128 277.49443636 179.11897256 274.41577148 179.11352539 C272.2186076 179.11324355 270.02144362 179.11340118 267.82427979 179.1139679 C261.83898451 179.11425601 255.85370909 179.10835713 249.86841846 179.10139394 C243.6210253 179.09516261 237.37363174 179.09455678 231.12623596 179.09336853 C220.63371458 179.09060884 210.14119937 179.08435334 199.64868164 179.07543945 C188.83943722 179.06626601 178.03019479 179.05918485 167.22094727 179.05493164 C166.22219133 179.05453756 166.22219133 179.05453756 165.20325851 179.05413551 C161.86308126 179.05283051 158.52290401 179.05156904 155.18272674 179.05032361 C127.45514606 179.03985773 99.72757354 179.02225702 72 179 C70.11739662 174.43778684 68.23578794 169.87516505 66.35501099 165.31219864 C65.71810283 163.76735849 65.08094573 162.22262094 64.44351196 160.67799759 C59.18337374 147.93092669 54.02951283 135.14446478 48.92578125 122.33398438 C45.99144268 114.96972531 43.03048582 107.61637822 40.0625 100.265625 C39.57027954 99.04627762 39.07805908 97.82693024 38.57092285 96.57063293 C37.56394437 94.07629751 36.55679316 91.58203189 35.54956055 89.08779907 C26.83580694 67.50826206 18.14620487 45.91919933 9.5 24.3125 C9.06913086 23.23657593 8.63826172 22.16065186 8.19433594 21.05212402 C6.99315473 18.0520696 5.79320321 15.05152689 4.59375 12.05078125 C4.24082886 11.16947037 3.88790771 10.28815948 3.52429199 9.38014221 C3.20367798 8.57705124 2.88306396 7.77396027 2.55273438 6.9465332 C2.1362262 5.90466606 2.1362262 5.90466606 1.71130371 4.8417511 C1.09459918 3.24494199 0.54130618 1.62391854 0 0 Z " fill="#3467CC" transform="translate(236,222)"/>
<path d="M0 0 C19.8 0 39.6 0 60 0 C60 19.47 60 38.94 60 59 C93.66 59 127.32 59 162 59 C162 39.53 162 20.06 162 0 C181.8 0 201.6 0 222 0 C222.33 23.76 222.66 47.52 223 72 C228.94 73.32 234.88 74.64 241 76 C245.43658242 77.33953567 249.76867491 78.70154808 254.125 80.25 C255.23101563 80.63986084 256.33703125 81.02972168 257.4765625 81.43139648 C272.84318397 86.97060576 289.85493089 93.38568319 297.99609375 108.5546875 C299.83249726 113.02779488 300.08375541 116.36802258 298.1796875 120.9921875 C287.39899407 140.36727989 261.52453019 147.10046975 241.76367188 152.91967773 C224.89005464 157.66254109 207.6525331 160.33519046 190.3125 162.6875 C189.57420959 162.79023224 188.83591919 162.89296448 188.07525635 162.99880981 C162.67326555 166.49487556 137.09690302 167.38786321 111.48113632 167.31785583 C109.39616465 167.31239167 107.31120439 167.31004119 105.22622681 167.3079834 C74.10040461 167.26018816 43.71939526 165.25772302 13 160 C12.08444336 159.84950195 11.16888672 159.69900391 10.22558594 159.54394531 C-17.04429834 155.02721494 -55.73305902 148.22833236 -74 125 C-76.95956142 120.51292301 -78.00683499 116.30524589 -77 111 C-72.21573913 98.15337359 -59.78559042 91.53670972 -48 86 C-37.48437445 81.50868164 -26.59314807 77.98508402 -15.5625 75 C-14.80026123 74.79213867 -14.03802246 74.58427734 -13.25268555 74.37011719 C-12.53121338 74.18610352 -11.80974121 74.00208984 -11.06640625 73.8125 C-10.44709229 73.65394531 -9.82777832 73.49539063 -9.18969727 73.33203125 C-6.15910876 72.8724928 -3.0652312 73 0 73 C0 48.91 0 24.82 0 0 Z " fill="#3B4551" transform="translate(389,777)"/>
<path d="M0 0 C1.6672192 0.0074741 3.33444728 0.0131615 5.00167847 0.01715088 C9.35836678 0.03231541 13.7145091 0.07151604 18.07098389 0.1159668 C22.52901833 0.15711945 26.98714226 0.1752043 31.4453125 0.1953125 C40.16951948 0.2380209 48.89328528 0.30615843 57.6171875 0.390625 C57.88375656 1.05189392 58.15032562 1.71316284 58.42497253 2.39447021 C61.03651189 8.8727427 63.64820448 15.35095339 66.26004982 21.82910252 C67.68075548 25.35287375 69.10142327 28.87666024 70.52200317 32.40048218 C76.35510786 46.86964188 82.18889327 61.33851031 88.0390625 75.80078125 C89.71107757 79.9348392 91.3829663 84.06894821 93.0546875 88.203125 C93.46910095 89.22791962 93.8835144 90.25271423 94.31048584 91.30856323 C99.61453795 104.42920058 104.89117898 117.56056242 110.140625 130.703125 C110.41934134 131.40089931 110.69805767 132.09867363 110.98521996 132.81759262 C113.24873831 138.48468257 115.51176843 144.15196751 117.77464676 149.81931305 C125.21987185 168.46459663 132.72332401 187.08307049 140.37451172 205.64501953 C144.20629865 214.94152137 148.00905815 224.2487751 151.75323486 233.58096313 C152.27883048 234.89070931 152.80528989 236.20010925 153.33270264 237.50912476 C154.0435519 239.27451371 154.75039916 241.04151256 155.45703125 242.80859375 C155.85269287 243.79625732 156.24835449 244.7839209 156.65600586 245.80151367 C157.47157608 247.9983951 158.07316655 250.11749636 158.6171875 252.390625 C159.80640084 252.38693783 160.99561419 252.38325066 162.2208643 252.37945175 C190.45588176 252.29280416 218.69089577 252.22685484 246.9260169 252.18636368 C250.40193142 252.18136091 253.87784566 252.17618361 257.35375977 252.17089844 C258.39173945 252.16932457 258.39173945 252.16932457 259.45068841 252.16771892 C270.65249345 252.1503178 281.85421629 252.11878175 293.05597258 252.08201382 C304.5516219 252.04459616 316.04721342 252.02268679 327.54292244 252.01427102 C333.99923797 252.00905325 340.45536715 251.99677742 346.911623 251.96770477 C352.98791774 251.94056465 359.06394925 251.93217731 365.14029884 251.93819427 C367.37076497 251.93709343 369.60123986 251.92913143 371.83165359 251.9138031 C374.87735541 251.89389767 377.92206383 251.89868838 380.9677887 251.90960693 C382.29125387 251.89212988 382.29125387 251.89212988 383.64145571 251.87429976 C389.45742699 251.93064371 392.83027476 253.04354968 397.6171875 256.390625 C401.11350228 260.46254935 401.05106483 264.61132485 401.02124023 269.75756836 C401.03153511 271.00241753 401.03153511 271.00241753 401.04203796 272.27241516 C401.0603001 275.00860835 401.05646931 277.74422784 401.05078125 280.48046875 C401.05534339 282.38709194 401.06064906 284.29371349 401.06666565 286.20033264 C401.07559564 290.19408859 401.07317494 294.18764457 401.06323242 298.18139648 C401.05174384 303.29381642 401.07195312 308.40554553 401.10114956 313.51787472 C401.11951525 317.45476144 401.11921834 321.39148274 401.11351204 325.32840157 C401.11335886 327.2130181 401.11940001 329.09764588 401.13180351 330.9822216 C401.14671848 333.62001475 401.13603316 336.25653325 401.11889648 338.89428711 C401.12856445 339.66902374 401.13823242 340.44376038 401.14819336 341.24197388 C401.07762317 346.44201796 399.88085668 349.37277319 396.6171875 353.390625 C392.86584735 356.68725725 389.73564074 357.51462745 384.80940914 357.52484608 C383.3153232 357.53153284 383.3153232 357.53153284 381.79105371 357.53835469 C380.69380222 357.53817033 379.59655073 357.53798597 378.46604919 357.53779602 C377.3026456 357.54147271 376.13924201 357.5451494 374.94058377 357.5489375 C371.70581148 357.55806574 368.47106901 357.56267436 365.23628604 357.56532681 C361.74939935 357.56922986 358.26252734 357.57880832 354.77565002 357.58753967 C346.35112408 357.60730591 337.92659693 357.61737131 329.50205359 357.62626746 C325.53399728 357.63065083 321.5659423 357.63601758 317.59788704 357.64125633 C304.40512971 357.65827013 291.21237321 357.67276341 278.01960659 357.68000507 C274.59567196 357.68191495 271.17173734 357.68383528 267.74780273 357.68579102 C266.89680652 357.68627476 266.0458103 357.6867585 265.16902632 357.6872569 C251.38929668 357.6955538 237.60965395 357.72088428 223.82996225 357.75337169 C209.67980196 357.78646021 195.5296858 357.80445553 181.37948662 357.80764931 C173.43587835 357.80981295 165.49239675 357.81853984 157.54882622 357.84411049 C150.78220911 357.86584216 144.01574944 357.8738559 137.24910139 357.86414371 C133.79868958 357.85960584 130.34860239 357.86145461 126.89823532 357.88090515 C123.15095417 357.89859747 119.4044931 357.89152959 115.6572113 357.87837219 C114.03475665 357.89482606 114.03475665 357.89482606 112.37952513 357.91161233 C104.21892695 357.84257514 96.92544477 356.13032022 90.3046875 351.140625 C84.27067913 344.96629085 80.6171875 338.20078211 80.6171875 329.390625 C224.6621875 328.895625 224.6621875 328.895625 371.6171875 328.390625 C371.6171875 312.880625 371.6171875 297.370625 371.6171875 281.390625 C256.7771875 280.895625 256.7771875 280.895625 139.6171875 280.390625 C131.89574955 261.73048329 124.2176162 243.06176304 116.6796875 224.328125 C115.67674433 221.83856275 114.67368164 219.34904907 113.67041016 216.85961914 C112.13472947 213.0489277 110.59912543 209.23820559 109.06414795 205.42723083 C104.63118068 194.42156421 100.18722266 183.42035562 95.74151611 172.41983032 C83.67578089 142.56083454 71.63788858 112.69059347 59.61653137 82.81370544 C59.0386262 81.37743079 58.46071992 79.94115657 57.8828125 78.50488281 C57.46401337 77.46403203 57.46401337 77.46403203 57.03675365 76.40215397 C54.84473926 70.95483449 52.64978462 65.50870278 50.45439148 60.06274414 C48.91139862 56.23312412 47.37119819 52.40238739 45.83218384 48.57116699 C45.1543222 46.88522047 44.47529048 45.19974387 43.79501343 43.51477051 C42.8927129 41.27933845 41.99456988 39.04228514 41.09765625 36.8046875 C40.61192139 35.5976416 40.12618652 34.3905957 39.62573242 33.14697266 C38.6171875 30.390625 38.6171875 30.390625 38.6171875 28.390625 C26.4071875 28.390625 14.1971875 28.390625 1.6171875 28.390625 C0.9571875 30.370625 0.2971875 32.350625 -0.3828125 34.390625 C-2.1875 36.4375 -2.1875 36.4375 -4.2578125 38.140625 C-4.93585938 38.71296875 -5.61390625 39.2853125 -6.3125 39.875 C-11.78987131 43.88484918 -16.7011102 44.28830523 -23.3828125 43.390625 C-29.96403768 40.80910065 -34.77739256 35.90725916 -37.6953125 29.515625 C-39.13882603 22.95419985 -38.99138125 18.12362173 -35.69921875 12.2734375 C-27.11761174 -0.00055234 -13.60651617 -0.18040165 0 0 Z " fill="#3366CC" transform="translate(141.3828125,160.609375)"/>
<path d="M0 0 C1.0774307 -0.00724325 2.1548614 -0.01448649 3.26494151 -0.02194923 C6.85808375 -0.03879288 10.44960969 -0.01292655 14.04267883 0.01295471 C16.6253757 0.00973439 19.20807043 0.00391557 21.79075623 -0.00430298 C28.06626383 -0.01938466 34.34129504 -0.00256198 40.61674341 0.02524792 C47.92835855 0.05647943 55.23987212 0.0561873 62.55154143 0.05473018 C75.59735288 0.05323016 88.64294324 0.08066533 101.68867493 0.12428284 C114.34236171 0.16656753 126.99585402 0.18779388 139.64961243 0.18580627 C140.42943533 0.18568641 141.20925824 0.18556654 142.01271214 0.18544304 C143.1804437 0.18526144 143.1804437 0.18526144 144.37176579 0.18507618 C158.78895062 0.183006 173.206053 0.20067705 187.62321108 0.22753583 C192.71806551 0.23657803 197.81290478 0.23977366 202.90776634 0.24113274 C209.76393668 0.24339435 216.61989857 0.26244248 223.47600174 0.29263115 C225.99390346 0.30140023 228.51182871 0.30508344 231.0297451 0.30334854 C234.46275644 0.3018781 237.8951936 0.31882601 241.328125 0.34057617 C242.82767991 0.33360746 242.82767991 0.33360746 244.35752887 0.32649797 C251.13725935 0.39758801 255.40021238 1.52741536 260.66108704 6.05421448 C264.66871458 10.71172757 266.52689401 14.67166387 266.25874329 20.79249573 C265.43521737 26.42180302 262.15815229 30.14104205 257.97358704 33.74171448 C252.50418508 37.28006439 247.65621839 37.16737207 241.35935974 37.12939453 C240.289987 37.13478007 239.22061426 37.14016561 238.11883628 37.14571434 C234.53530934 37.16002251 230.9521503 37.15288292 227.36860657 37.14576721 C224.79945071 37.15146929 222.23029739 37.15843291 219.66114807 37.16656494 C213.40676717 37.18375186 207.15248674 37.18459313 200.89808835 37.17935204 C195.81343053 37.1753086 190.72880237 37.17675596 185.64414597 37.1821003 C184.92012404 37.18284872 184.19610212 37.18359714 183.45014014 37.18436824 C181.97922119 37.18589974 180.50830224 37.18743809 179.0373833 37.18898321 C165.24630315 37.20270807 151.45527974 37.19727086 137.66420089 37.185798 C125.05373728 37.17586748 112.44342043 37.18880313 99.83297946 37.21273219 C86.87827344 37.2371289 73.92363576 37.24672955 60.96890724 37.24007946 C53.69835065 37.23658826 46.4279069 37.23881258 39.15736771 37.25633049 C32.3201031 37.27260032 25.48312319 37.26786187 18.64586639 37.24902534 C16.1368579 37.24533488 13.62782871 37.24846116 11.11883926 37.25891113 C7.6928292 37.27209071 4.26775154 37.26059899 0.84178162 37.24291992 C-0.15025139 37.25252493 -1.14228439 37.26212994 -2.164379 37.272026 C-8.28139945 37.20711558 -12.92223965 36.23654274 -18.02641296 32.74171448 C-22.15574838 28.50371234 -23.82493587 24.79006497 -24.40141296 18.92921448 C-24.22995115 14.13730807 -22.85494101 10.59279235 -20.02641296 6.74171448 C-13.77623752 1.05980051 -8.24300039 -0.12809039 0 0 Z " fill="#3568CC" transform="translate(631.0264129638672,249.25828552246094)"/>
<path d="M0 0 C0.95815326 -0.00638882 1.91630651 -0.01277764 2.90349472 -0.01936007 C6.09884452 -0.03456266 9.29294503 -0.01417961 12.48825073 0.00622559 C14.78508921 0.00272303 17.08192526 -0.00293705 19.37875366 -0.0105896 C25.6059184 -0.02482608 31.83264098 -0.00778763 38.05976343 0.01569557 C44.57790615 0.03581236 51.09603065 0.02992466 57.61419678 0.02758789 C68.55764188 0.02764145 79.50091066 0.04726506 90.44430542 0.07946777 C101.69825575 0.11257192 112.95202613 0.12672303 124.20602417 0.1204834 C137.77954425 0.11299472 151.35293982 0.12037109 164.92644882 0.14213562 C170.10734029 0.15031218 175.28819213 0.1530187 180.46908951 0.15144348 C186.56766927 0.15056502 192.66603388 0.16477076 198.76455688 0.19067001 C201.00348747 0.19783608 203.24244093 0.19991333 205.48138046 0.19655228 C208.53567249 0.19284156 211.58933519 0.20757128 214.64355469 0.22705078 C215.53110258 0.22172286 216.41865048 0.21639493 217.33309376 0.21090555 C223.22331132 0.2757928 227.60579498 1.18443601 232.05807495 5.37536621 C232.53631714 5.97220215 233.01455933 6.56903809 233.5072937 7.18395996 C233.99842651 7.78337402 234.48955933 8.38278809 234.99557495 9.00036621 C238.23765258 13.38297929 237.71613061 18.37912771 237.1947937 23.62145996 C235.55604244 28.50208872 232.44448177 31.78833458 228.1947937 34.62145996 C225.49075835 35.52280508 223.92282426 35.75079255 221.14667988 35.76406097 C220.32007557 35.77036891 219.49347127 35.77667686 218.64181834 35.78317595 C217.73385908 35.78503794 216.82589982 35.78689994 215.89042664 35.78881836 C214.44334565 35.79750844 214.44334565 35.79750844 212.9670307 35.80637407 C209.71979578 35.82447667 206.47257829 35.83531783 203.22531128 35.84606934 C200.90290161 35.85724182 198.58049357 35.86875506 196.25808716 35.88058472 C188.61852265 35.91717293 180.97894151 35.94236357 173.33932495 35.96520996 C172.04027906 35.96915583 170.74123317 35.97310169 169.40282226 35.97716713 C157.15523144 36.01358378 144.90763563 36.04518662 132.66000843 36.06627655 C129.82354022 36.07124576 126.98707217 36.0762901 124.15060425 36.0814209 C123.44562354 36.08269157 122.74064282 36.08396224 122.01429906 36.08527142 C110.59663104 36.10662703 99.17925101 36.15561881 87.76172785 36.21566504 C76.03658856 36.27682004 64.31159777 36.31146916 52.58630103 36.32074976 C46.00409687 36.32701337 39.4224224 36.34519118 32.84037209 36.39213562 C26.64732287 36.43575855 20.45509381 36.44630319 14.26191711 36.43150711 C11.98992153 36.43183614 9.71789107 36.44414175 7.44603539 36.46935654 C4.34105736 36.50199682 1.23908835 36.49131911 -1.86592102 36.4699707 C-3.2111295 36.49953236 -3.2111295 36.49953236 -4.58351392 36.52969122 C-10.71196775 36.42346304 -13.79594229 34.67946805 -18.2093218 30.45857286 C-21.95822913 26.14299361 -23.4772466 21.38282646 -23.2114563 15.66833496 C-22.09189813 10.02748417 -18.94110482 6.23597667 -14.30084419 3.03798676 C-9.51924545 0.11638593 -5.50296887 -0.07800519 0 0 Z " fill="#3367CC" transform="translate(629.8052062988281,356.3785400390625)"/>
<path d="M0 0 C0.73941971 -0.00508782 1.47883942 -0.01017564 2.24066579 -0.01541764 C4.7254953 -0.03114961 7.2102957 -0.03966919 9.69515991 -0.04811096 C11.47408228 -0.05764892 13.25300279 -0.06754006 15.03192139 -0.07775879 C20.88107092 -0.10915385 26.73023472 -0.12941329 32.57943726 -0.14796448 C34.07240743 -0.15291046 34.07240743 -0.15291046 35.59553862 -0.15795636 C44.98368581 -0.18874012 54.37183621 -0.21544617 63.7600193 -0.23237514 C75.76482472 -0.2542766 87.76918258 -0.29623526 99.77380908 -0.36581272 C108.21640069 -0.41308145 116.65887168 -0.43731264 125.10159147 -0.44457203 C130.14289118 -0.44952437 135.18368653 -0.46456543 140.22484207 -0.50431633 C144.97086046 -0.54124622 149.71608778 -0.54957157 154.46222305 -0.5363102 C156.20003935 -0.53636404 157.93789126 -0.54661825 159.67557526 -0.56806183 C175.51293124 -0.75298301 175.51293124 -0.75298301 182.24181175 4.61628628 C186.3342648 8.69758693 187.01438185 12.42228857 187.35287476 18.03562927 C187.21371206 23.37019923 186.02785299 26.43198542 182.68881226 30.53953552 C177.90400346 34.62532904 173.2877123 35.60095959 167.15510559 35.5415802 C166.03177239 35.54860016 166.03177239 35.54860016 164.88574558 35.55576193 C162.38689465 35.56768784 159.88859459 35.55826439 157.38973999 35.54881287 C155.59403158 35.55287961 153.79832568 35.55822206 152.00262451 35.56474304 C147.13290217 35.57840925 142.26337069 35.5731211 137.39364505 35.56360579 C132.29639598 35.55600679 127.19916317 35.56305536 122.10191345 35.56776428 C113.54336617 35.57322063 104.98489657 35.56603285 96.42636108 35.55174255 C86.53106351 35.53541108 76.63595132 35.54070867 66.74065822 35.55722177 C58.24369801 35.57083383 49.74679361 35.57275782 41.24982601 35.56490576 C36.17534887 35.56022839 31.10095889 35.5596063 26.02648735 35.56951523 C21.25677556 35.5781787 16.48730297 35.57217427 11.71761703 35.55483246 C9.9668664 35.55086454 8.21609565 35.55200688 6.46535301 35.55862045 C4.07618334 35.56681393 1.68778101 35.55654151 -0.70133972 35.5415802 C-1.74141964 35.55161845 -1.74141964 35.55161845 -2.80251127 35.56185949 C-8.62559027 35.4910902 -11.59259024 33.55203149 -15.89712524 29.84812927 C-19.66715964 25.46673795 -20.74760642 21.03214181 -20.59243774 15.24656677 C-19.6417633 10.06636111 -16.34672533 6.21650792 -12.58462524 2.72312927 C-8.44818567 0.00178745 -4.77848287 0.00813245 0 0 Z " fill="#3366CC" transform="translate(627.2096252441406,463.83937072753906)"/>
<path d="M0 0 C31.02 0 62.04 0 94 0 C94 11.22 94 22.44 94 34 C67.27 34 40.54 34 13 34 C9.75620029 26.86364064 6.59805522 19.76810373 3.6875 12.5 C3.32849609 11.62085938 2.96949219 10.74171875 2.59960938 9.8359375 C2.26123047 8.99289063 1.92285156 8.14984375 1.57421875 7.28125 C1.11921997 6.15299805 1.11921997 6.15299805 0.6550293 5.00195312 C0 3 0 3 0 0 Z " fill="#FCFCFD" transform="translate(266,242)"/>
<path d="M0 0 C22.44 0 44.88 0 68 0 C68 13.2 68 26.4 68 40 C45.56 40 23.12 40 0 40 C0 26.8 0 13.6 0 0 Z " fill="#FCFDFE" transform="translate(375,291)"/>
<path d="M0 0 C24.42 0 48.84 0 74 0 C74 13.2 74 26.4 74 40 C54.53 40 35.06 40 15 40 C9.1875 25.9375 9.1875 25.9375 7.37182617 21.54272461 C6.89205322 20.38264893 6.41228027 19.22257324 5.91796875 18.02734375 C5.43094482 16.84906006 4.9439209 15.67077637 4.44213867 14.45678711 C3.69984938 12.6775296 2.95378122 10.89908094 2.15103149 9.14627075 C0.61726993 5.76833347 0 3.79196501 0 0 Z " fill="#FAFBFD" transform="translate(286,291)"/>
<path d="M0 0 C8.08892609 4.85335566 13.0802601 11.90382721 15.4375 21 C16.93209645 29.79837908 13.9434681 37.89023799 8.96875 45.140625 C3.79310526 50.97591073 -3.5987076 54.16414722 -11.20703125 55.4453125 C-19.05952144 55.81629629 -26.20265611 53.10875856 -32.375 48.3125 C-37.775188 43.29530406 -41.22029145 36.60665355 -41.765625 29.265625 C-41.91301632 19.78345034 -40.27340348 12.03986934 -33.5625 5 C-24.02520332 -2.45521079 -11.43552884 -5.25893147 0 0 Z " fill="#FCFCFC" transform="translate(512.5625,667)"/>
<path d="M0 0 C20.13 0 40.26 0 61 0 C61 13.3499896 60.06459789 26.6925264 59 40 C39.53 40 20.06 40 0 40 C0 26.8 0 13.6 0 0 Z " fill="#FBFCFD" transform="translate(459,291)"/>
<path d="M0 0 C22.44 0 44.88 0 68 0 C68 11.22 68 22.44 68 34 C45.56 34 23.12 34 0 34 C0 22.78 0 11.56 0 0 Z " fill="#FEFEFE" transform="translate(375,347)"/>
<path d="M0 0 C22.44 0 44.88 0 68 0 C68 11.22 68 22.44 68 34 C45.56 34 23.12 34 0 34 C0 22.78 0 11.56 0 0 Z " fill="#FDFEFE" transform="translate(375,242)"/>
<path d="M0 0 C21.45 0 42.9 0 65 0 C65 11.35292424 63.98349947 22.68975607 63 34 C42.21 34 21.42 34 0 34 C0 22.78 0 11.56 0 0 Z " fill="#FDFDFE" transform="translate(459,242)"/>
<path d="M0 0 C18.81 0 37.62 0 57 0 C56.34 11.22 55.68 22.44 55 34 C36.85 34 18.7 34 0 34 C0 22.78 0 11.56 0 0 Z " fill="#FDFDFE" transform="translate(459,347)"/>
<path d="M0 0 C17.16 0 34.32 0 52 0 C52 11.22 52 22.44 52 34 C39.13 34 26.26 34 13 34 C10.855 28.76125 8.71 23.5225 6.5 18.125 C5.82130859 16.47258301 5.14261719 14.82016602 4.44335938 13.11767578 C3.90987944 11.81033428 3.37665845 10.50288706 2.84375 9.1953125 C2.56305664 8.51460693 2.28236328 7.83390137 1.99316406 7.13256836 C0 2.2281436 0 2.2281436 0 0 Z " fill="#FAFBFD" transform="translate(308,347)"/>
<path d="M0 0 C22.11 0 44.22 0 67 0 C67 20.46 67 40.92 67 62 C66.67 62 66.34 62 66 62 C65.8040625 61.175 65.608125 60.35 65.40625 59.5 C60.58107657 40.86484744 51.52064776 23.79348987 35 13 C23.90797909 6.52026785 12.86080933 2.2132839 0 1 C0 0.67 0 0.34 0 0 Z " fill="#FBFCFC" transform="translate(933,0)"/>
<path d="M0 0 C20.46 0 40.92 0 62 0 C62 0.33 62 0.66 62 1 C61.09121094 1.1959375 60.18242188 1.391875 59.24609375 1.59375 C39.58373753 6.27238245 23.01223618 16.49880354 11.93359375 33.67578125 C6.64992428 42.75942311 3.11465706 51.70495907 1 62 C0.67 62 0.34 62 0 62 C0 41.54 0 21.08 0 0 Z " fill="#FCFDFD" transform="translate(0,0)"/>
<path d="M0 0 C1.61178894 4.02947234 0.16017428 6.97351278 -1 11 C-1.48951668 16.48258678 -0.67900017 20.1777997 2 25 C5.58770342 28.80335772 8.92376775 30.79644782 14.1875 31.3125 C21.84995724 30.68442973 26.55510861 26.91746766 31.65234375 21.390625 C32.09707031 20.93171875 32.54179687 20.4728125 33 20 C33.33 20 33.66 20 34 20 C34.72410085 27.80419807 34.2552874 33.30695518 29.77734375 39.87109375 C24.99585606 45.59837021 19.3202042 48.53903528 11.8515625 49.3359375 C3.68077808 49.43485741 -1.81214423 48.82406224 -7.93359375 43.234375 C-13.54370283 37.30935336 -16.05377691 31.75999019 -16.5 23.625 C-16.28168418 16.78127365 -13.91510892 11.14285181 -9.25 6.11328125 C-6.35414721 3.53572262 -3.50768351 1.65789855 0 0 Z " fill="#3568CC" transform="translate(460,539)"/>
<path d="M0 0 C-0.165 1.0725 -0.33 2.145 -0.5 3.25 C-1.81154718 13.59123722 -1.81154718 13.59123722 0.5625 23.5 C4.48690209 27.52502778 7.83024615 29.68439944 13.4375 30.5 C20.62851477 29.49073477 25.06469519 26.22561686 30 21 C30.66 21 31.32 21 32 21 C32 20.34 32 19.68 32 19 C32.66 19 33.32 19 34 19 C34.55250336 27.7019279 32.62286674 33.82031391 27.375 40.8125 C22.17135736 46.40641584 15.4546812 48.19838961 8 48.5625 C0.94104874 48.28123073 -4.90271075 46.18725201 -9.8828125 41.0625 C-16.09398058 33.14101027 -16.86825467 25.93418651 -16 16 C-14.36487455 9.22904429 -7.31581324 0 0 0 Z " fill="#3567CC" transform="translate(267,540)"/>
<path d="M0 0 C0.91641494 -0.00384115 1.83282988 -0.00768229 2.77701497 -0.01163983 C4.29711647 -0.01034011 4.29711647 -0.01034011 5.84792709 -0.00901413 C6.91937682 -0.01198525 7.99082654 -0.01495637 9.09474444 -0.01801753 C12.709074 -0.02673552 16.32337055 -0.02821539 19.93770981 -0.02970505 C22.51937049 -0.03433105 25.10103048 -0.03935541 27.68268967 -0.04475021 C34.71373987 -0.05834508 41.74478437 -0.06436022 48.77584553 -0.06876087 C53.16499388 -0.0715217 57.55414003 -0.07575879 61.9432869 -0.08026505 C74.09202689 -0.09245989 86.24076512 -0.10275834 98.38951111 -0.10614014 C99.16741325 -0.1063597 99.9453154 -0.10657927 100.74679033 -0.10680549 C101.5265727 -0.10702377 102.30635506 -0.10724204 103.1097672 -0.10746694 C104.68994729 -0.1079104 106.27012738 -0.10835697 107.85030746 -0.10880661 C108.63413428 -0.10902804 109.4179611 -0.10924947 110.22554025 -0.10947761 C122.92487745 -0.11342517 135.62415726 -0.13087692 148.32347229 -0.15416613 C161.3571299 -0.17787579 174.39075871 -0.19034183 187.42443824 -0.19150805 C194.74416334 -0.19242511 202.06381369 -0.1981848 209.38351822 -0.21632767 C216.26827418 -0.23333205 223.15288599 -0.23498412 230.03765678 -0.22618866 C232.56685707 -0.22541603 235.09606485 -0.22979052 237.62524605 -0.23964691 C241.07391137 -0.25229995 244.52206847 -0.24652536 247.97072983 -0.23606491 C248.97520794 -0.24412132 249.97968606 -0.25217772 251.0146029 -0.26047826 C256.34262216 -0.22259622 260.02371603 0.19247192 264.66329575 3.13142776 C264.33329575 3.79142776 264.00329575 4.45142776 263.66329575 5.13142776 C175.88329575 5.13142776 88.10329575 5.13142776 -2.33670425 5.13142776 C-2.33670425 4.47142776 -2.33670425 3.81142776 -2.33670425 3.13142776 C-3.65670425 2.47142776 -4.97670425 1.81142776 -6.33670425 1.13142776 C-3.99136177 -0.04124348 -2.61406154 0.00409906 0 0 Z " fill="#4673D1" transform="translate(624.3367042541504,249.86857223510742)"/>
<path d="M0 0 C13.86 0 27.72 0 42 0 C40.16755232 3.66489537 39.30560361 4.84862885 36.3125 7.3125 C33.58814836 9.61469986 30.99338129 11.9492996 28.5 14.5 C25.44268944 17.61302465 22.22428175 20.47046108 18.8984375 23.29296875 C17.12065128 24.89151315 15.62270436 26.5691281 14.0625 28.375 C11.09125773 31.40306931 8.28899284 31.97522424 4.1171875 32.171875 C1.03958304 31.92203257 -0.69322543 31.02716553 -3 29 C-6.00192266 24.13090208 -4.85949351 20.58670783 -4 15 C-2.68 10.05 -1.36 5.1 0 0 Z " fill="#3366CC" transform="translate(276,532)"/>
<path d="M0 0 C13.86 0 27.72 0 42 0 C35.25455773 7.86968265 35.25455773 7.86968265 32.37890625 10.5 C31.75306641 11.0775 31.12722656 11.655 30.48242188 12.25 C29.84884766 12.8275 29.21527344 13.405 28.5625 14 C27.29177841 15.16537005 26.02224319 16.33203505 24.75390625 17.5 C24.13531738 18.06847656 23.51672852 18.63695312 22.87939453 19.22265625 C20.32315864 21.64008899 17.88602051 24.16665763 15.46069336 26.71484375 C14 28 14 28 12 28 C12 28.66 12 29.32 12 30 C8.34148709 32.34144827 5.27169964 32.44965259 1 32 C-1.75329021 30.20437595 -3.52627461 28.94745078 -5 26 C-6.0356079 16.16172493 -3.06614839 10.42490451 0 0 Z " fill="#3366CC" transform="translate(470,532)"/>
<path d="M0 0 C1.65 0 3.3 0 5 0 C5.33 4.29 5.66 8.58 6 13 C6.9075 11.989375 7.815 10.97875 8.75 9.9375 C10.296875 8.21484375 10.296875 8.21484375 12 7 C14.203125 7.31640625 14.203125 7.31640625 16 8 C14.71937515 9.7074998 13.38232443 11.37373596 12 13 C11.34 13 10.68 13 10 13 C11.91202643 17.78006608 14.02766235 21.79772953 17 26 C14.8125 26.4375 14.8125 26.4375 12 26 C10.47721739 24.31282609 9.31032522 22.55899343 8.11328125 20.62890625 C7.083831 18.83937637 7.083831 18.83937637 5 18 C5 20.64 5 23.28 5 26 C3.35 26 1.7 26 0 26 C-0.495 23.525 -0.495 23.525 -1 21 C-2.299375 22.2375 -2.299375 22.2375 -3.625 23.5 C-5.94169652 25.40338916 -6.97114948 25.99398948 -10 26.625 C-14.25061619 25.73945496 -16.14809128 24.25932425 -19 21 C-19.69724396 17.0066937 -19.85292141 14.76943784 -18.109375 11.15234375 C-15.87828362 8.00650491 -14.27383047 7.0488983 -10.5 6.375 C-6.53809053 7.08248383 -4.7831139 8.13254931 -2 11 C-2 11.66 -2 12.32 -2 13 C-1.34 13 -0.68 13 0 13 C0 8.71 0 4.42 0 0 Z " fill="#0A0A0A" transform="translate(202,970)"/>
<path d="M0 0 C1.875 0.3125 1.875 0.3125 4 1 C4.66 1.99 5.32 2.98 6 4 C6.66 3.67 7.32 3.34 8 3 C8.33 2.01 8.66 1.02 9 0 C9.66 0.33 10.32 0.66 11 1 C10.67515625 2.19496094 10.67515625 2.19496094 10.34375 3.4140625 C10.0653125 4.47367188 9.786875 5.53328125 9.5 6.625 C9.2215625 7.66914062 8.943125 8.71328125 8.65625 9.7890625 C7.84190384 13.77354193 7.45103997 17.35311991 8.75 21.25 C10.30503051 23.42704272 11.52151022 24.0173775 14 25 C16.26909279 25.1028641 16.26909279 25.1028641 18.5625 24.75 C19.70912109 24.61851562 19.70912109 24.61851562 20.87890625 24.484375 C23.28412893 24.06735941 23.28412893 24.06735941 26 22 C27.65 22.99 29.3 23.98 31 25 C27.94296772 29.52440778 25.19040153 31.32851476 20 33 C14.49378266 33.80090434 11.22792778 32.56814452 6.80078125 29.46484375 C3.12902777 26.47805947 1.2233987 24.03063687 0.6953125 19.23046875 C0.55788091 13.16057337 1.21783952 7.79202155 3 2 C1.68 2.33 0.36 2.66 -1 3 C-0.67 2.01 -0.34 1.02 0 0 Z " fill="#F3F7F9" transform="translate(264,538)"/>
<path d="M0 0 C3.53494505 0.9336246 4.94397547 2.52143196 6.9375 5.51171875 C7.57747166 8.32079789 7.56770793 10.70133202 6.9375 13.51171875 C5.14386089 16.32175335 3.91869065 18.02112343 0.9375 19.51171875 C-2.79921591 19.85771096 -5.18159553 20.04489777 -8.4375 18.07421875 C-10.81100976 14.33137643 -11.48941968 10.92576325 -11.0625 6.51171875 C-8.98072538 1.40096205 -5.31701814 -0.45315496 0 0 Z " fill="#EBEBEB" transform="translate(174.0625,976.48828125)"/>
<path d="M0 0 C3.53494505 0.9336246 4.94397547 2.52143196 6.9375 5.51171875 C7.57747166 8.32079789 7.56770793 10.70133202 6.9375 13.51171875 C5.14386089 16.32175335 3.91869065 18.02112343 0.9375 19.51171875 C-2.65954193 19.91139008 -4.63029887 19.73262155 -7.875 18.07421875 C-10.5428787 14.94898942 -11.09548806 12.82360431 -11.31640625 8.7734375 C-11.0388952 6.30145443 -10.54650432 4.97787407 -9.125 2.94921875 C-5.75090098 0.26371137 -4.19605943 -0.3576187 0 0 Z " fill="#ECECEC" transform="translate(109.0625,976.48828125)"/>
<path d="M0 0 C0.33 0.66 0.66 1.32 1 2 C3.6905528 0.77992056 3.6905528 0.77992056 6 -1 C9.4375 -0.75 9.4375 -0.75 13 0 C15 3 15 3 14.8125 6.5625 C14 10 14 10 11 12 C8.5 12.3125 8.5 12.3125 6 12 C4.3125 10.5 4.3125 10.5 3 9 C2.34 9 1.68 9 1 9 C0.566875 9.495 0.13375 9.99 -0.3125 10.5 C-2 12 -2 12 -4.5 12.375 C-7 12 -7 12 -8.8125 10.9375 C-10.67036623 7.90624457 -10.37133265 5.46577141 -10 2 C-7.70989947 -2.31077747 -4.20045325 -1.01122023 0 0 Z " fill="#121212" transform="translate(814,983)"/>
<path d="M0 0 C2.50164525 1.43734881 3.96305664 2.86369354 6 5 C6 5.99 6 6.98 6 8 C4.68 8 3.36 8 2 8 C1.34 7.01 0.68 6.02 0 5 C-3.58357241 4.74984127 -3.58357241 4.74984127 -7 5 C-7 6.32 -7 7.64 -7 9 C-5.84371094 9.39832031 -5.84371094 9.39832031 -4.6640625 9.8046875 C-3.66117188 10.15789063 -2.65828125 10.51109375 -1.625 10.875 C-0.12839844 11.39707031 -0.12839844 11.39707031 1.3984375 11.9296875 C4 13 4 13 6 15 C6.36599043 18.36711191 6.37424895 20.34060899 4.6875 23.3125 C2.13933842 25.86066158 0.11291802 25.99384084 -3.4375 26.1875 C-8.65217391 25.91304348 -8.65217391 25.91304348 -11 24 C-12.25 20.875 -12.25 20.875 -13 18 C-11.68 18 -10.36 18 -9 18 C-8.34 18.99 -7.68 19.98 -7 21 C-5.02252878 21.36297936 -5.02252878 21.36297936 -2.875 21.1875 C-1.59625 21.125625 -0.3175 21.06375 1 21 C0.67 19.35 0.34 17.7 0 16 C-0.69867188 15.80664062 -1.39734375 15.61328125 -2.1171875 15.4140625 C-3.02726563 15.15367187 -3.93734375 14.89328125 -4.875 14.625 C-5.77992188 14.36976563 -6.68484375 14.11453125 -7.6171875 13.8515625 C-10 13 -10 13 -12 11 C-12.4375 7.625 -12.4375 7.625 -12 4 C-8.4615505 -0.18180395 -5.32920466 -0.84145337 0 0 Z " fill="#E7E7E7" transform="translate(143,970)"/>
<path d="M0 0 C0.99 0 1.98 0 3 0 C3.33 2.64 3.66 5.28 4 8 C5.32 6.68 6.64 5.36 8 4 C8.99 4.33 9.98 4.66 11 5 C9.68 6.32 8.36 7.64 7 9 C7.433125 9.86625 7.433125 9.86625 7.875 10.75 C8.91666667 12.83333333 9.95833333 14.91666667 11 17 C7.20411134 16.45773019 5.52788007 14.79872437 3 12 C3 13.65 3 15.3 3 17 C2.01 17 1.02 17 0 17 C-0.33 16.01 -0.66 15.02 -1 14 C-1.66 14 -2.32 14 -3 14 C-3 14.66 -3 15.32 -3 16 C-9.37426409 17.32296047 -9.37426409 17.32296047 -11.9375 16 C-13.58367385 12.90131981 -13.36841966 10.43858351 -13 7 C-11.9375 5 -11.9375 5 -10 4 C-6.4375 4.125 -6.4375 4.125 -3 5 C-2.01 6.485 -2.01 6.485 -1 8 C-0.67 5.36 -0.34 2.72 0 0 Z " fill="#0F0F0F" transform="translate(786,978)"/>
<path d="M0 0 C4.05644724 0.72436558 5.79894179 1.51469054 8.5 4.625 C8.5 6.605 8.5 8.585 8.5 10.625 C4.21 10.625 -0.08 10.625 -4.5 10.625 C-4.17 12.275 -3.84 13.925 -3.5 15.625 C-0.58347826 15.79181109 -0.58347826 15.79181109 2.5 15.625 C3.16 14.965 3.82 14.305 4.5 13.625 C6.625 14 6.625 14 8.5 14.625 C7 17.125 7 17.125 4.5 19.625 C-0.40852174 20.48204348 -0.40852174 20.48204348 -3.5 19.625 C-7.0341186 16.6062737 -8.30734394 14.70387394 -9.125 10.125 C-8.11708415 4.48067123 -6.00880338 1.0730006 0 0 Z " fill="#E9E9E9" transform="translate(56.5,976.375)"/>
<path d="M0 0 C1.32 0 2.64 0 4 0 C6.31 6.6 8.62 13.2 11 20 C13.31 13.4 15.62 6.8 18 0 C19.32 0 20.64 0 22 0 C20.36231563 9.00726401 17.13020303 17.42639358 14 26 C12.35 26 10.7 26 9 26 C0 4.8647541 0 4.8647541 0 0 Z " fill="#ECECEC" transform="translate(27,970)"/>
<path d="M0 0 C1.32 0 2.64 0 4 0 C4.33 4.29 4.66 8.58 5 13 C5.9075 11.989375 6.815 10.97875 7.75 9.9375 C9.296875 8.21484375 9.296875 8.21484375 11 7 C13.203125 7.31640625 13.203125 7.31640625 15 8 C13.71937515 9.7074998 12.38232443 11.37373596 11 13 C10.34 13 9.68 13 9 13 C10.91202643 17.78006608 13.02766235 21.79772953 16 26 C13.8125 26.4375 13.8125 26.4375 11 26 C9.47721739 24.31282609 8.31032522 22.55899343 7.11328125 20.62890625 C6.083831 18.83937637 6.083831 18.83937637 4 18 C4 20.64 4 23.28 4 26 C2.68 26 1.36 26 0 26 C0 17.42 0 8.84 0 0 Z " fill="#E6E6E6" transform="translate(203,970)"/>
<path d="M0 0 C2.5 0.5625 2.5 0.5625 4.8125 2.625 C6.93193033 6.31437872 7.09967873 8.36474886 6.5 12.5625 C4.875 15.5 4.875 15.5 2.5 17.5625 C-0.5625 18.1875 -0.5625 18.1875 -3.5 17.5625 C-6.11380886 14.77443721 -6.72238513 12.21246636 -6.9375 8.5 C-6.5 4.5625 -6.5 4.5625 -4.8125 2.0625 C-2.5 0.5625 -2.5 0.5625 0 0 Z " fill="#E0E0E0" transform="translate(895.5,977.4375)"/>
<path d="M0 0 C2.5 0.5625 2.5 0.5625 4.8125 2.625 C6.93193033 6.31437872 7.09967873 8.36474886 6.5 12.5625 C4.9375 15.5625 4.9375 15.5625 2.5 17.5625 C-1.125 17.625 -1.125 17.625 -4.5 16.5625 C-7.03920233 13.80249747 -6.91748935 10.08078623 -6.81640625 6.46875 C-6.5 4.5625 -6.5 4.5625 -4.8125 2.0625 C-2.5 0.5625 -2.5 0.5625 0 0 Z " fill="#DBDBDB" transform="translate(880.5,977.4375)"/>
<path d="M0 0 C1.32 1.32 2.64 2.64 4 4 C2.61211198 5.30020011 1.21430742 6.5898193 -0.1875 7.875 C-1.35345703 8.95394531 -1.35345703 8.95394531 -2.54296875 10.0546875 C-7.20108843 13.74267415 -11.11230548 14.42819597 -17 14 C-19.4375 13 -19.4375 13 -21 12 C-20.34 10.68 -19.68 9.36 -19 8 C-19.66 8 -20.32 8 -21 8 C-21 7.34 -21 6.68 -21 6 C-19.87851562 6.01740234 -19.87851562 6.01740234 -18.734375 6.03515625 C-17.74953125 6.04417969 -16.7646875 6.05320312 -15.75 6.0625 C-14.77546875 6.07410156 -13.8009375 6.08570313 -12.796875 6.09765625 C-10.34241322 6.01195577 -8.33831086 5.70706066 -6 5 C-6 4.34 -6 3.68 -6 3 C-5.01 3.33 -4.02 3.66 -3 4 C-0.94729537 2.15811388 -0.94729537 2.15811388 0 0 Z " fill="#F2F6FA" transform="translate(488,557)"/>
<path d="M0 0 C3.9375 0.625 3.9375 0.625 6.4375 2.4375 C7.9375 4.625 7.9375 4.625 7.9375 7.625 C6.6175 7.295 5.2975 6.965 3.9375 6.625 C3.9375 5.965 3.9375 5.305 3.9375 4.625 C1.02097826 4.45818891 1.02097826 4.45818891 -2.0625 4.625 C-4.44244368 6.56832332 -4.44244368 6.56832332 -4.3125 10.125 C-4.44244368 13.68167668 -4.44244368 13.68167668 -2.0625 15.625 C1.02097826 15.79181109 1.02097826 15.79181109 3.9375 15.625 C4.2675 14.635 4.5975 13.645 4.9375 12.625 C5.9275 12.625 6.9175 12.625 7.9375 12.625 C7.58143309 15.20648508 7.10421807 16.44545747 5.3125 18.375 C1.92582458 20.15746075 -0.28746295 20.15482976 -4.0625 19.625 C-7 17.625 -7 17.625 -9.0625 14.625 C-9.80194481 9.96649769 -9.78223922 7.03809419 -7.0625 3.125 C-3.55147796 0.1991483 -3.55147796 0.1991483 0 0 Z " fill="#E8E8E8" transform="translate(76.0625,976.375)"/>
<path d="M0 0 C3.98106749 0.71090491 5.74051909 1.69827783 8.5 4.625 C8.5 5.615 8.5 6.605 8.5 7.625 C5.63275314 7.05155063 4.6385485 6.7635485 2.5 4.625 C-0.80683466 4.91483269 -0.80683466 4.91483269 -3.5 6.625 C-3.75003964 10.08321402 -3.75003964 10.08321402 -3.5 13.625 C-1.60244856 15.97473818 -1.60244856 15.97473818 1.625 15.75 C3.048125 15.688125 3.048125 15.688125 4.5 15.625 C4.83 14.635 5.16 13.645 5.5 12.625 C6.49 12.625 7.48 12.625 8.5 12.625 C8.13802104 15.24934747 7.67343943 16.44513689 5.8125 18.375 C2.7015993 20.05656795 0.99911355 20.18485817 -2.5 19.625 C-5.875 17.625 -5.875 17.625 -8.5 14.625 C-9.19724396 10.6316937 -9.35292141 8.39443784 -7.609375 4.77734375 C-5.37828362 1.63150491 -3.77383047 0.6738983 0 0 Z " fill="#E5E5E5" transform="translate(191.5,976.375)"/>
<path d="M0 0 C2.49040942 2.49040942 2.32391014 3.43154357 2.375 6.875 C2.30043393 10.31498131 2.2060177 11.67952802 0.3125 14.625 C-2.45187769 16.26868403 -3.83888371 16.56737985 -7 16 C-8.8125 14.625 -8.8125 14.625 -10 13 C-10 12.34 -10 11.68 -10 11 C-9.01 11 -8.02 11 -7 11 C-6.67 11.66 -6.34 12.32 -6 13 C-4.68 12.67 -3.36 12.34 -2 12 C-2 11.34 -2 10.68 -2 10 C-4.31 9.67 -6.62 9.34 -9 9 C-10.32 2.64 -10.32 2.64 -9 0 C-5.82179635 -1.58910182 -3.364966 -0.7953556 0 0 Z " fill="#E8E8E8" transform="translate(955,979)"/>
<path d="M0 0 C2.49040942 2.49040942 2.32391014 3.43154357 2.375 6.875 C2.30043393 10.31498131 2.2060177 11.67952802 0.3125 14.625 C-2.45187769 16.26868403 -3.83888371 16.56737985 -7 16 C-8.8125 14.625 -8.8125 14.625 -10 13 C-10 12.34 -10 11.68 -10 11 C-9.01 11 -8.02 11 -7 11 C-6.67 11.66 -6.34 12.32 -6 13 C-4.68 12.67 -3.36 12.34 -2 12 C-2 11.34 -2 10.68 -2 10 C-4.31 9.67 -6.62 9.34 -9 9 C-10.32 2.64 -10.32 2.64 -9 0 C-5.82179635 -1.58910182 -3.364966 -0.7953556 0 0 Z " fill="#E5E5E5" transform="translate(969,979)"/>
<path d="M0 0 C2.67770289 4.01655434 2.69000365 7.28071581 2 12 C0.3125 14.5625 0.3125 14.5625 -2 16 C-4.5625 16.4375 -4.5625 16.4375 -7 16 C-8.8125 14.625 -8.8125 14.625 -10 13 C-10 12.34 -10 11.68 -10 11 C-9.01 11 -8.02 11 -7 11 C-6.67 11.66 -6.34 12.32 -6 13 C-4.68 12.67 -3.36 12.34 -2 12 C-2 11.34 -2 10.68 -2 10 C-2.763125 10.061875 -3.52625 10.12375 -4.3125 10.1875 C-7 10 -7 10 -8.8125 8.8125 C-10.42525784 6.35092224 -10.4334014 4.88934264 -10 2 C-7.59684073 -2.24086929 -4.21511384 -1.07293807 0 0 Z " fill="#ECECEC" transform="translate(928,979)"/>
<path d="M0 0 C2 3 2 3 1.8125 6.5625 C1 10 1 10 -2 12 C-4.79523674 12.34940459 -6.3648354 12.37233787 -8.8125 10.9375 C-10.67036623 7.90624457 -10.37133265 5.46577141 -10 2 C-7.71139092 -2.30797003 -4.19123206 -1.06685907 0 0 Z " fill="#E1E1E1" transform="translate(827,983)"/>
<path d="M0 0 C2 3 2 3 1.8125 6.5625 C1 10 1 10 -2 12 C-4.79523674 12.34940459 -6.3648354 12.37233787 -8.8125 10.9375 C-10.67036623 7.90624457 -10.37133265 5.46577141 -10 2 C-7.71139092 -2.30797003 -4.19123206 -1.06685907 0 0 Z " fill="#E1E1E1" transform="translate(770,983)"/>
<path d="M0 0 C2 3 2 3 1.8125 6.5625 C1 10 1 10 -2 12 C-4.79523674 12.34940459 -6.3648354 12.37233787 -8.8125 10.9375 C-10.67036623 7.90624457 -10.37133265 5.46577141 -10 2 C-7.71139092 -2.30797003 -4.19123206 -1.06685907 0 0 Z " fill="#DBDBDB" transform="translate(727,983)"/>
<path d="M0 0 C2.62527189 -0.05382106 5.24944713 -0.09358313 7.875 -0.125 C8.62136719 -0.14175781 9.36773438 -0.15851562 10.13671875 -0.17578125 C12.09194461 -0.1933959 14.04742021 -0.10320189 16 0 C18 2 18 2 18.1953125 4.6015625 C18.17210937 5.59929688 18.14890625 6.59703125 18.125 7.625 C18.10695313 8.62789062 18.08890625 9.63078125 18.0703125 10.6640625 C18.04710937 11.43492187 18.02390625 12.20578125 18 13 C17.34 13 16.68 13 16 13 C15.67 10.03 15.34 7.06 15 4 C13.68 4 12.36 4 11 4 C10.67 6.97 10.34 9.94 10 13 C9.34 13 8.68 13 8 13 C7.67 9.7 7.34 6.4 7 3 C6.01 3 5.02 3 4 3 C3.67 6.3 3.34 9.6 3 13 C2.01 13 1.02 13 0 13 C0 8.71 0 4.42 0 0 Z " fill="#EEEEEE" transform="translate(830,982)"/>
<path d="M0 0 C1 1 1 1 1.25 4.875 C1.2073067 7.517241 1.14785737 8.7431951 -0.1875 11.0625 C-2 12 -2 12 -4.5625 11.8125 C-7 11 -7 11 -9 9 C-9.54782609 2.97391304 -9.54782609 2.97391304 -7.875 0 C-5.042116 -1.51087147 -3.01987426 -0.78779328 0 0 Z " fill="#0A0A0A" transform="translate(111,981)"/>
<path d="M0 0 C1.52491998 3.04983996 1.23562548 5.6423369 1 9 C-0.1875 11 -0.1875 11 -2 12 C-5.34192692 11.75546876 -6.60543557 11.39456443 -9 9 C-9.54782609 2.97391304 -9.54782609 2.97391304 -7.875 0 C-5.01598528 -1.52480785 -3.03270286 -0.8570682 0 0 Z " fill="#080808" transform="translate(176,981)"/>
<path d="M0 0 C0.99 0 1.98 0 3 0 C3 3.63 3 7.26 3 11 C3.66 11 4.32 11 5 11 C5 11.66 5 12.32 5 13 C4.34 13 3.68 13 3 13 C3 14.32 3 15.64 3 17 C2.01 17 1.02 17 0 17 C0 15.68 0 14.36 0 13 C-2.64 13 -5.28 13 -8 13 C-6.46462766 8.08680853 -3.58639157 3.67764836 0 0 Z " fill="#9D9D9D" transform="translate(911,978)"/>
<path d="M0 0 C0.99 0 1.98 0 3 0 C3 1.32 3 2.64 3 4 C4.32 4 5.64 4 7 4 C7 4.99 7 5.98 7 7 C5.68 7 4.36 7 3 7 C3 11.29 3 15.58 3 20 C4.32 20 5.64 20 7 20 C7 20.99 7 21.98 7 23 C5.00045254 23.04254356 2.99958364 23.04080783 1 23 C0 22 0 22 -0.09765625 18.62109375 C-0.09098369 17.22652923 -0.07902532 15.83198257 -0.0625 14.4375 C-0.05798828 13.72658203 -0.05347656 13.01566406 -0.04882812 12.28320312 C-0.03700864 10.52209987 -0.01907263 8.76103964 0 7 C-1.32 7 -2.64 7 -4 7 C-4 6.01 -4 5.02 -4 4 C-2.68 4 -1.36 4 0 4 C0 2.68 0 1.36 0 0 Z " fill="#F9F9F9" transform="translate(154,973)"/>
<path d="M0 0 C0.99 0 1.98 0 3 0 C3 1.32 3 2.64 3 4 C4.32 4 5.64 4 7 4 C7 4.99 7 5.98 7 7 C5.68 7 4.36 7 3 7 C3 11.29 3 15.58 3 20 C4.32 20 5.64 20 7 20 C7 20.99 7 21.98 7 23 C5.00045254 23.04254356 2.99958364 23.04080783 1 23 C0 22 0 22 -0.09765625 18.62109375 C-0.09098369 17.22652923 -0.07902532 15.83198257 -0.0625 14.4375 C-0.05798828 13.72658203 -0.05347656 13.01566406 -0.04882812 12.28320312 C-0.03700864 10.52209987 -0.01907263 8.76103964 0 7 C-1.32 7 -2.64 7 -4 7 C-4 6.01 -4 5.02 -4 4 C-2.68 4 -1.36 4 0 4 C0 2.68 0 1.36 0 0 Z " fill="#F9F9F9" transform="translate(89,973)"/>
<path d="M0 0 C1.875 1.375 1.875 1.375 3 3 C3 3.66 3 4.32 3 5 C-1.455 4.01 -1.455 4.01 -6 3 C-5.35932024 6.08759559 -5.35932024 6.08759559 -3.15234375 6.94921875 C-2.42144531 7.19285156 -1.69054687 7.43648437 -0.9375 7.6875 C-0.20402344 7.93886719 0.52945313 8.19023438 1.28515625 8.44921875 C1.85105469 8.63097656 2.41695312 8.81273437 3 9 C3.1875 11.875 3.1875 11.875 3 15 C-0.46923881 17.31282587 -1.92205575 17.42478586 -6 17 C-7.875 15.625 -7.875 15.625 -9 14 C-9 13.34 -9 12.68 -9 12 C-8.01 12 -7.02 12 -6 12 C-5.67 12.66 -5.34 13.32 -5 14 C-3.35 13.67 -1.7 13.34 0 13 C0 12.34 0 11.68 0 11 C-0.56589844 10.84144531 -1.13179687 10.68289063 -1.71484375 10.51953125 C-3.92756716 9.81565965 -5.94841871 9.09044132 -8 8 C-9.1875 5.5 -9.1875 5.5 -9 3 C-6.83453349 -0.6940311 -3.97364694 -0.49670587 0 0 Z " fill="#D5D5D5" transform="translate(747,978)"/>
<path d="M0 0 C2.475 0.495 2.475 0.495 5 1 C7.72502965 0.62277985 7.72502965 0.62277985 10 0 C10 1.32 10 2.64 10 4 C8.35 4.66 6.7 5.32 5 6 C4.67 10.29 4.34 14.58 4 19 C2.68 19 1.36 19 0 19 C0 12.73 0 6.46 0 0 Z " fill="#E7E7E7" transform="translate(119,977)"/>
<path d="M0 0 C1.8125 1.25 1.8125 1.25 3 3 C3 4.32 3 5.64 3 7 C0.03 7 -2.94 7 -6 7 C-5.01 8.485 -5.01 8.485 -4 10 C-0.535 9.505 -0.535 9.505 3 9 C2.67 9.99 2.34 10.98 2 12 C-4.37426409 13.32296047 -4.37426409 13.32296047 -6.9375 12 C-8.58367385 8.90131981 -8.36841966 6.43858351 -8 3 C-5.95177941 -0.34183359 -3.7548828 -0.56323242 0 0 Z " fill="#F9F9F9" transform="translate(691,982)"/>
<path d="M0 0 C0.99 0 1.98 0 3 0 C3.33 2.64 3.66 5.28 4 8 C5.32 6.68 6.64 5.36 8 4 C8.99 4.33 9.98 4.66 11 5 C9.68 6.32 8.36 7.64 7 9 C7.28875 9.5775 7.5775 10.155 7.875 10.75 C9.4375 13.875 9.4375 13.875 11 17 C7.20411134 16.45773019 5.52788007 14.79872437 3 12 C3 13.65 3 15.3 3 17 C2.01 17 1.02 17 0 17 C0 11.39 0 5.78 0 0 Z " fill="#D4D4D4" transform="translate(786,978)"/>
<path d="M0 0 C0.66 0 1.32 0 2 0 C2.21755666 5.4389165 2.10428384 9.87080814 0 15 C-0.66 14.67 -1.32 14.34 -2 14 C-2 13.34 -2 12.68 -2 12 C-5.3 11.67 -8.6 11.34 -12 11 C-11.278125 10.443125 -10.55625 9.88625 -9.8125 9.3125 C-6.92913577 7.0270024 -6.92913577 7.0270024 -4.3125 4.25 C-2 2 -2 2 0 2 C0 1.34 0 0.68 0 0 Z " fill="#4170CD" transform="translate(299,559)"/>
<path d="M0 0 C3.63 0 7.26 0 11 0 C10.67 1.32 10.34 2.64 10 4 C10 4.99 10 5.98 10 7 C10.66 7.66 11.32 8.32 12 9 C12.36023622 11.80984248 12.38332602 13.38241919 10.875 15.8125 C8.12844028 17.55198782 6.18153026 17.39769128 3 17 C1.125 15.625 1.125 15.625 0 14 C0 13.34 0 12.68 0 12 C0.86625 12.495 0.86625 12.495 1.75 13 C4.19883862 14.27075898 4.19883862 14.27075898 8 14 C8 12.35 8 10.7 8 9 C6.68 8.67 5.36 8.34 4 8 C5.875 4.125 5.875 4.125 7 3 C4.69 2.67 2.38 2.34 0 2 C0 1.34 0 0.68 0 0 Z " fill="#F3F3F3" transform="translate(860,978)"/>
<path d="M0 0 C3 1 3 1 3.94921875 2.70703125 C4.19285156 3.40183594 4.43648437 4.09664062 4.6875 4.8125 C4.93886719 5.49957031 5.19023438 6.18664062 5.44921875 6.89453125 C6 9 6 9 6 13 C6.66 13 7.32 13 8 13 C8.12117187 12.39671875 8.24234375 11.7934375 8.3671875 11.171875 C8.53476562 10.37265625 8.70234375 9.5734375 8.875 8.75 C9.03742187 7.96109375 9.19984375 7.1721875 9.3671875 6.359375 C9.99150075 4.03168856 10.84838542 2.10968048 12 0 C12.99 0.33 13.98 0.66 15 1 C13.02 6.28 11.04 11.56 9 17 C7.68 17 6.36 17 5 17 C4.16080602 14.73117913 3.32848276 12.46022973 2.5 10.1875 C2.26152344 9.54490234 2.02304687 8.90230469 1.77734375 8.24023438 C0.72931254 5.35066261 0 3.09923939 0 0 Z " fill="#DEDEDE" transform="translate(668,978)"/>
<path d="M0 0 C1 1 1 1 1.4375 3.6875 C0.80565824 8.47144475 -1.42136191 9.86869167 -5 13 C-2.03 13.495 -2.03 13.495 1 14 C1 14.66 1 15.32 1 16 C-2.63 16 -6.26 16 -10 16 C-8.79987394 11.19949578 -7.35468015 10.39861126 -3.59375 7.5625 C-1.74641453 5.7513868 -1.39118346 4.52096011 -1 2 C-3.41619823 1.74969023 -3.41619823 1.74969023 -6 2 C-6.99 3.485 -6.99 3.485 -8 5 C-8.66 5 -9.32 5 -10 5 C-9.625 2.5625 -9.625 2.5625 -9 0 C-5.90842747 -1.54578627 -3.31526981 -0.60277633 0 0 Z " fill="#E4E4E4" transform="translate(942,979)"/>
<path d="M0 0 C0.66 0.33 1.32 0.66 2 1 C2.625 3.5625 2.625 3.5625 3 6 C7.65052872 6.26932521 7.65052872 6.26932521 12 5 C11.42655063 7.86724686 11.1385485 8.8614515 9 11 C6.875 10.625 6.875 10.625 5 10 C5 9.34 5 8.68 5 8 C4.01 8 3.02 8 2 8 C2.33 8.99 2.66 9.98 3 11 C2.34 11 1.68 11 1 11 C0.67 11.66 0.34 12.32 0 13 C0 12.34 0 11.68 0 11 C-2.31 11 -4.62 11 -7 11 C-6.57847656 10.54109375 -6.15695312 10.0821875 -5.72265625 9.609375 C-4.90087891 8.68898438 -4.90087891 8.68898438 -4.0625 7.75 C-3.51722656 7.14671875 -2.97195313 6.5434375 -2.41015625 5.921875 C-0.93787201 3.91532695 -0.42470811 2.42997551 0 0 Z " fill="#171717" transform="translate(943,982)"/>
<path d="M0 0 C3.53571429 0.53571429 3.53571429 0.53571429 5 2 C5.16796875 3.99609375 5.16796875 3.99609375 5.1875 6.4375 C5.20167969 7.24058594 5.21585938 8.04367187 5.23046875 8.87109375 C5 11 5 11 3 13 C-0.53571429 12.46428571 -0.53571429 12.46428571 -2 11 C-2.16796875 9.00390625 -2.16796875 9.00390625 -2.1875 6.5625 C-2.20167969 5.75941406 -2.21585938 4.95632813 -2.23046875 4.12890625 C-2 2 -2 2 0 0 Z " fill="#0A0A0A" transform="translate(894,980)"/>
<path d="M0 0 C3.53571429 0.53571429 3.53571429 0.53571429 5 2 C5.16796875 3.99609375 5.16796875 3.99609375 5.1875 6.4375 C5.20167969 7.24058594 5.21585938 8.04367187 5.23046875 8.87109375 C5 11 5 11 3 13 C-0.53571429 12.46428571 -0.53571429 12.46428571 -2 11 C-2.16796875 9.00390625 -2.16796875 9.00390625 -2.1875 6.5625 C-2.20167969 5.75941406 -2.21585938 4.95632813 -2.23046875 4.12890625 C-2 2 -2 2 0 0 Z " fill="#0A0A0A" transform="translate(879,980)"/>
<path d="M0 0 C0.33 0 0.66 0 1 0 C1.66 1.98 2.32 3.96 3 6 C6.47147842 6.74957157 6.47147842 6.74957157 10 7 C10.33 6.01 10.66 5.02 11 4 C11.99 4 12.98 4 14 4 C13.63802104 6.62434747 13.17343943 7.82013689 11.3125 9.75 C8.24885205 11.40602592 6.44265183 11.4918074 3 11 C0.125 9 0.125 9 -2 7 C-1.125 2.25 -1.125 2.25 0 0 Z " fill="#EEEEEE" transform="translate(186,985)"/>
<path d="M0 0 C0.33 1.32 0.66 2.64 1 4 C0.4225 3.649375 -0.155 3.29875 -0.75 2.9375 C-3.35801776 1.85082593 -4.39417629 2.06934867 -7 3 C-7 4.65 -7 6.3 -7 8 C-4.39417629 8.93065133 -3.35801776 9.14917407 -0.75 8.0625 C-0.1725 7.711875 0.405 7.36125 1 7 C0.67 8.32 0.34 9.64 0 11 C-6.37426409 12.32296047 -6.37426409 12.32296047 -8.9375 11 C-10.58367385 7.90131981 -10.36841966 5.43858351 -10 2 C-7.69981438 -2.32976117 -4.22839932 -0.87759231 0 0 Z " fill="#F1F1F1" transform="translate(814,983)"/>
<path d="M0 0 C0.33 1.32 0.66 2.64 1 4 C0.4225 3.649375 -0.155 3.29875 -0.75 2.9375 C-3.35801776 1.85082593 -4.39417629 2.06934867 -7 3 C-7 4.65 -7 6.3 -7 8 C-4.39417629 8.93065133 -3.35801776 9.14917407 -0.75 8.0625 C-0.1725 7.711875 0.405 7.36125 1 7 C0.67 8.32 0.34 9.64 0 11 C-6.37426409 12.32296047 -6.37426409 12.32296047 -8.9375 11 C-10.58367385 7.90131981 -10.36841966 5.43858351 -10 2 C-7.69981438 -2.32976117 -4.22839932 -0.87759231 0 0 Z " fill="#E9E9E9" transform="translate(783,983)"/>
<path d="M0 0 C0.33 1.32 0.66 2.64 1 4 C0.4225 3.649375 -0.155 3.29875 -0.75 2.9375 C-3.35801776 1.85082593 -4.39417629 2.06934867 -7 3 C-7 4.65 -7 6.3 -7 8 C-4.39417629 8.93065133 -3.35801776 9.14917407 -0.75 8.0625 C-0.1725 7.711875 0.405 7.36125 1 7 C0.67 8.32 0.34 9.64 0 11 C-6.37426409 12.32296047 -6.37426409 12.32296047 -8.9375 11 C-10.58367385 7.90131981 -10.36841966 5.43858351 -10 2 C-7.69981438 -2.32976117 -4.22839932 -0.87759231 0 0 Z " fill="#E9E9E9" transform="translate(706,983)"/>
<path d="M0 0 C0.99 0 1.98 0 3 0 C3 0.99 3 1.98 3 3 C3.99 3 4.98 3 6 3 C6 3.66 6 4.32 6 5 C5.01 5 4.02 5 3 5 C3 7.97 3 10.94 3 14 C3.99 14 4.98 14 6 14 C6 14.66 6 15.32 6 16 C4.33388095 16.042721 2.66617115 16.04063832 1 16 C0 15 0 15 -0.09765625 12.71484375 C-0.08025391 11.34005859 -0.08025391 11.34005859 -0.0625 9.9375 C-0.05347656 9.01839844 -0.04445313 8.09929688 -0.03515625 7.15234375 C-0.02355469 6.44207031 -0.01195312 5.73179687 0 5 C-0.66 5 -1.32 5 -2 5 C-2 4.34 -2 3.68 -2 3 C-1.34 3 -0.68 3 0 3 C0 2.01 0 1.02 0 0 Z " fill="#D7D7D7" transform="translate(710,979)"/>
<path d="M0 0 C0.99 0 1.98 0 3 0 C3 0.99 3 1.98 3 3 C3.99 3 4.98 3 6 3 C6 3.66 6 4.32 6 5 C5.01 5 4.02 5 3 5 C3 7.97 3 10.94 3 14 C3.66 14 4.32 14 5 14 C5 14.66 5 15.32 5 16 C3.35 15.67 1.7 15.34 0 15 C0 11.7 0 8.4 0 5 C-0.66 5 -1.32 5 -2 5 C-2 4.34 -2 3.68 -2 3 C-1.34 3 -0.68 3 0 3 C0 2.01 0 1.02 0 0 Z " fill="#D9D9D9" transform="translate(753,979)"/>
<path d="M0 0 C0.99 0 1.98 0 3 0 C4.38226016 2.76452033 4.09525387 5.0461363 4.0625 8.125 C4.05347656 9.22070312 4.04445313 10.31640625 4.03515625 11.4453125 C4.02355469 12.28835938 4.01195312 13.13140625 4 14 C2.35 14 0.7 14 -1 14 C-1.02694851 12.04174127 -1.04637218 10.08337774 -1.0625 8.125 C-1.07410156 7.03445313 -1.08570313 5.94390625 -1.09765625 4.8203125 C-1 2 -1 2 0 0 Z " fill="#3266CD" transform="translate(523,262)"/>
<path d="M0 0 C7.35678392 -0.36180905 7.35678392 -0.36180905 10 1.125 C11.42098605 3.78934884 11.19767261 6.03491085 11 9 C8.36 9 5.72 9 3 9 C3.66 8.38125 4.32 7.7625 5 7.125 C7.2284549 5.24362573 7.2284549 5.24362573 7 3 C4.36 2.67 1.72 2.34 -1 2 C-0.67 1.34 -0.34 0.68 0 0 Z " fill="#F2F2F2" transform="translate(54,978)"/>
<path d="M0 0 C2.43814024 3.73912417 2.26708254 7.44458477 2.1875 11.75 C2.18105469 12.46285156 2.17460938 13.17570312 2.16796875 13.91015625 C2.09816104 18.68325869 1.78409091 23.29545452 1 28 C0.67 28 0.34 28 0 28 C0 22.72 0 17.44 0 12 C-1.32 11.67 -2.64 11.34 -4 11 C-3.42415568 8.61435923 -2.77772405 6.33317216 -2 4 C-1.34 4 -0.68 4 0 4 C0 2.68 0 1.36 0 0 Z " fill="#4C7AD2" transform="translate(533,348)"/>
<path d="M0 0 C0.66 0 1.32 0 2 0 C0.94744358 5.26278209 -0.33743201 10.37487802 -1.9375 15.5 C-2.25589844 16.5209375 -2.57429687 17.541875 -2.90234375 18.59375 C-3.26457031 19.3878125 -3.62679687 20.181875 -4 21 C-4.99 21.33 -5.98 21.66 -7 22 C-5.0827282 14.49068545 -2.75950985 7.24196241 0 0 Z " fill="#DCDCDC" transform="translate(856,977)"/>
<path d="M0 0 C2.31 0 4.62 0 7 0 C7 0.99 7 1.98 7 3 C6.01 3.33 5.02 3.66 4 4 C3.67 6.97 3.34 9.94 3 13 C2.01 13 1.02 13 0 13 C0 8.71 0 4.42 0 0 Z " fill="#D2D2D2" transform="translate(730,982)"/>
<path d="M0 0 C3.53571429 0.53571429 3.53571429 0.53571429 5 2 C5.1875 4.4375 5.1875 4.4375 5 7 C4.34 7.66 3.68 8.32 3 9 C-0.53571429 8.46428571 -0.53571429 8.46428571 -2 7 C-2.1875 4.5625 -2.1875 4.5625 -2 2 C-1.34 1.34 -0.68 0.68 0 0 Z " fill="#111111" transform="translate(821,984)"/>
<path d="M0 0 C3.53571429 0.53571429 3.53571429 0.53571429 5 2 C5.1875 4.4375 5.1875 4.4375 5 7 C4.34 7.66 3.68 8.32 3 9 C-0.53571429 8.46428571 -0.53571429 8.46428571 -2 7 C-2.1875 4.5625 -2.1875 4.5625 -2 2 C-1.34 1.34 -0.68 0.68 0 0 Z " fill="#111111" transform="translate(764,984)"/>
<path d="M0 0 C3.53571429 0.53571429 3.53571429 0.53571429 5 2 C5.1875 4.4375 5.1875 4.4375 5 7 C4.34 7.66 3.68 8.32 3 9 C-0.53571429 8.46428571 -0.53571429 8.46428571 -2 7 C-2.1875 4.5625 -2.1875 4.5625 -2 2 C-1.34 1.34 -0.68 0.68 0 0 Z " fill="#111111" transform="translate(721,984)"/>
<path d="M0 0 C0.99 0.33 1.98 0.66 3 1 C2.96744792 2.98567708 2.93489583 4.97135417 2.90234375 6.95703125 C2.91736783 9.20305461 2.91736783 9.20305461 4 12 C3.5625 14.6875 3.5625 14.6875 3 17 C1 15.5625 1 15.5625 -1 13 C-1.63105699 8.53342778 -1.20983329 4.32785891 0 0 Z " fill="#386BCD" transform="translate(466,545)"/>
<path d="M0 0 C2.97 0.495 2.97 0.495 6 1 C6.1875 3.875 6.1875 3.875 6 7 C2.53076119 9.31282587 1.07794425 9.42478586 -3 9 C-4.875 7.625 -4.875 7.625 -6 6 C-6 5.34 -6 4.68 -6 4 C-5.01 4 -4.02 4 -3 4 C-2.67 4.66 -2.34 5.32 -2 6 C-0.35 5.67 1.3 5.34 3 5 C3.22609337 2.87635519 3.22609337 2.87635519 1.5 1.375 C1.005 0.92125 0.51 0.4675 0 0 Z " fill="#E8E8E8" transform="translate(744,986)"/>
<path d="M0 0 C0.33 0 0.66 0 1 0 C1 3.3 1 6.6 1 10 C1.99 10 2.98 10 4 10 C4 10.66 4 11.32 4 12 C3.34 12 2.68 12 2 12 C2 13.32 2 14.64 2 16 C1.01 16 0.02 16 -1 16 C-1 14.68 -1 13.36 -1 12 C-3.31 12 -5.62 12 -8 12 C-7.67 11.34 -7.34 10.68 -7 10 C-4.69 10 -2.38 10 0 10 C-0.08378906 9.36191406 -0.16757812 8.72382812 -0.25390625 8.06640625 C-0.40666016 6.82697266 -0.40666016 6.82697266 -0.5625 5.5625 C-0.66691406 4.73878906 -0.77132812 3.91507813 -0.87890625 3.06640625 C-0.91886719 2.38449219 -0.95882812 1.70257812 -1 1 C-0.67 0.67 -0.34 0.34 0 0 Z " fill="#F0F0F0" transform="translate(912,979)"/>
<path d="M0 0 C1.8125 2 1.8125 2 3 4 C0.69 3.67 -1.62 3.34 -4 3 C-5.99097846 5.98646769 -6.94124926 8.59687262 -8 12 C-8.33 12 -8.66 12 -9 12 C-9.48539326 4.71910112 -9.48539326 4.71910112 -7.3125 1.5 C-4.5366313 -0.30056348 -3.24185935 -0.66499679 0 0 Z " fill="#E7E7E7" transform="translate(898,978)"/>
<path d="M0 0 C0.33 0 0.66 0 1 0 C1.66 2.64 2.32 5.28 3 8 C6.70152678 8.92538169 7.63458162 9.08174162 11 8 C10.01 9.32 9.02 10.64 8 12 C4.625 11.75 4.625 11.75 1 11 C-1.53883972 8.01962293 -1.25211048 4.78165713 -1 1 C-0.67 0.67 -0.34 0.34 0 0 Z " fill="#EBEBEB" transform="translate(875,983)"/>
<path d="M0 0 C1.67542976 0.28604898 3.34385343 0.61781233 5 1 C5 2.65 5 4.3 5 6 C2.625 6.625 2.625 6.625 0 7 C-0.66 6.34 -1.32 5.68 -2 5 C-1.46428571 1.46428571 -1.46428571 1.46428571 0 0 Z " fill="#171717" transform="translate(963,980)"/>
<path d="M0 0 C1.67542976 0.28604898 3.34385343 0.61781233 5 1 C5 2.65 5 4.3 5 6 C2.625 6.625 2.625 6.625 0 7 C-0.66 6.34 -1.32 5.68 -2 5 C-1.46428571 1.46428571 -1.46428571 1.46428571 0 0 Z " fill="#181818" transform="translate(949,980)"/>
<path d="M0 0 C1.67542976 0.28604898 3.34385343 0.61781233 5 1 C5 2.65 5 4.3 5 6 C2.625 6.625 2.625 6.625 0 7 C-0.66 6.34 -1.32 5.68 -2 5 C-1.46428571 1.46428571 -1.46428571 1.46428571 0 0 Z " fill="#171717" transform="translate(922,980)"/>
<path d="M0 0 C1.65 0 3.3 0 5 0 C5 2.97 5 5.94 5 9 C4.34 9 3.68 9 3 9 C2.67 9.66 2.34 10.32 2 11 C2 10.34 2 9.68 2 9 C1.34 9 0.68 9 0 9 C0 6.03 0 3.06 0 0 Z " fill="#151515" transform="translate(756,984)"/>
<path d="M0 0 C2.625 0.3125 2.625 0.3125 4.4375 2.3125 C4.829375 2.9725 5.22125 3.6325 5.625 4.3125 C3.21954362 5.51522819 1.67503047 5.41321472 -1 5.375 C-2.22589844 5.36146484 -2.22589844 5.36146484 -3.4765625 5.34765625 C-4.41628906 5.33025391 -4.41628906 5.33025391 -5.375 5.3125 C-2.99512693 0.39409565 -2.99512693 0.39409565 0 0 Z " fill="#8F8F8F" transform="translate(688.375,981.6875)"/>
<path d="M0 0 C0.33 0 0.66 0 1 0 C1.22223194 2.74086056 1.34781139 4.43963721 -0.125 6.8125 C-2.87155972 8.55198782 -4.81846974 8.39769128 -8 8 C-9.875 6.625 -9.875 6.625 -11 5 C-11 4.34 -11 3.68 -11 3 C-10.13375 3.495 -10.13375 3.495 -9.25 4 C-6.80116138 5.27075898 -6.80116138 5.27075898 -3 5 C-2.690625 4.360625 -2.38125 3.72125 -2.0625 3.0625 C-1 1 -1 1 0 0 Z " fill="#D8D8D8" transform="translate(871,987)"/>
<path d="M0 0 C-0.66 1.32 -1.32 2.64 -2 4 C-3.65 3.67 -5.3 3.34 -7 3 C-7 2.34 -7 1.68 -7 1 C-8.32 1.33 -9.64 1.66 -11 2 C-11 1.34 -11 0.68 -11 0 C-7.07632508 -2.82504594 -4.32061114 -1.49559616 0 0 Z " fill="#1E1E1E" transform="translate(748,989)"/>
<path d="M0 0 C0.66 0 1.32 0 2 0 C2 0.66 2 1.32 2 2 C2.66 2 3.32 2 4 2 C4.103125 2.61875 4.20625 3.2375 4.3125 3.875 C4.87525373 6.36526484 4.87525373 6.36526484 8 8 C8.1875 10.625 8.1875 10.625 8 13 C7.01 13.33 6.02 13.66 5 14 C3.35 9.38 1.7 4.76 0 0 Z " fill="#3C6CCE" transform="translate(247,249)"/>
<path d="M0 0 C1.32 0 2.64 0 4 0 C4.07654536 4.51617599 4.10228696 8.59085217 3 13 C2.34 11.68 1.68 10.36 1 9 C0.34 9.66 -0.32 10.32 -1 11 C-0.67 7.37 -0.34 3.74 0 0 Z " fill="#4A77D4" transform="translate(540,248)"/>
<path d="M0 0 C1.32 0 2.64 0 4 0 C4.33 2.97 4.66 5.94 5 9 C3.35 9 1.7 9 0 9 C0 6.03 0 3.06 0 0 Z " fill="#0E0E0E" transform="translate(713,984)"/>
<path d="M0 0 C0.66 0 1.32 0 2 0 C3.32229189 2.64458379 3.09677194 4.67761301 3.0625 7.625 C3.05347656 8.62789062 3.04445313 9.63078125 3.03515625 10.6640625 C3.02355469 11.43492187 3.01195312 12.20578125 3 13 C2.01 13 1.02 13 0 13 C0 8.71 0 4.42 0 0 Z " fill="#D4D4D4" transform="translate(830,982)"/>
<path d="M0 0 C0.66 0.33 1.32 0.66 2 1 C2 2.98 2 4.96 2 7 C2.66 7 3.32 7 4 7 C3.67 9.64 3.34 12.28 3 15 C1.29159719 13.36587557 0.06546953 12.13093906 -1 10 C-0.9129796 8.28766312 -0.75902838 6.57824594 -0.5625 4.875 C-0.46066406 3.96492187 -0.35882813 3.05484375 -0.25390625 2.1171875 C-0.17011719 1.41851563 -0.08632813 0.71984375 0 0 Z " fill="#406ECE" transform="translate(272,547)"/>
<path d="M0 0 C0.78375 0.04125 1.5675 0.0825 2.375 0.125 C1.715 0.516875 1.055 0.90875 0.375 1.3125 C-1.91666667 2.97916667 -1.91666667 2.97916667 -1.875 5.8125 C-1.7925 6.575625 -1.71 7.33875 -1.625 8.125 C-0.305 8.785 1.015 9.445 2.375 10.125 C2.375 10.785 2.375 11.445 2.375 12.125 C-2.375 11.375 -2.375 11.375 -4.625 9.125 C-4.875 5.625 -4.875 5.625 -4.625 2.125 C-2.625 0.125 -2.625 0.125 0 0 Z " fill="#F0F0F0" transform="translate(721.625,982.875)"/>
<path d="M0 0 C1.79068573 2.6860286 2.66055791 4.6626589 3.625 7.6875 C3.88539063 8.49574219 4.14578125 9.30398438 4.4140625 10.13671875 C4.60742188 10.75160156 4.80078125 11.36648438 5 12 C4.01 12.495 4.01 12.495 3 13 C2.34 12.01 1.68 11.02 1 10 C0.01 10.495 0.01 10.495 -1 11 C-1 10.34 -1 9.68 -1 9 C-1.66 9 -2.32 9 -3 9 C-3 8.34 -3 7.68 -3 7 C-2.34 6.67 -1.68 6.34 -1 6 C-0.34227572 2.97065509 -0.34227572 2.97065509 0 0 Z " fill="#4270CF" transform="translate(268,249)"/>
<path d="M0 0 C0.99 0.33 1.98 0.66 3 1 C2.34 1.66 1.68 2.32 1 3 C0.83312552 5.58354218 0.83312552 5.58354218 1 8 C2.32 8.66 3.64 9.32 5 10 C5 10.66 5 11.32 5 12 C0.25 11.25 0.25 11.25 -2 9 C-2.25 5.5 -2.25 5.5 -2 2 C-1.34 1.34 -0.68 0.68 0 0 Z " fill="#F1F1F1" transform="translate(762,983)"/>
<path d="M0 0 C0.66 0 1.32 0 2 0 C2 1.32 2 2.64 2 4 C-0.97 4.66 -3.94 5.32 -7 6 C-7.66 4.68 -8.32 3.36 -9 2 C-6.03 2 -3.06 2 0 2 C0 1.34 0 0.68 0 0 Z " fill="#171717" transform="translate(694,987)"/>
<path d="M0 0 C0.99 0.33 1.98 0.66 3 1 C2.34 1.66 1.68 2.32 1 3 C0.83312552 5.58354218 0.83312552 5.58354218 1 8 C2.32 8.66 3.64 9.32 5 10 C5 10.66 5 11.32 5 12 C0.25 11.25 0.25 11.25 -2 9 C-2.25 5.5 -2.25 5.5 -2 2 C-1.34 1.34 -0.68 0.68 0 0 Z " fill="#F0F0F0" transform="translate(819,983)"/>
<path d="M0 0 C0.66 0.66 1.32 1.32 2 2 C-1.269813 5.87533393 -1.269813 5.87533393 -4.5625 6.4375 C-7.38838048 5.93029068 -8.321769 5.29652664 -10 3 C-10 2.34 -10 1.68 -10 1 C-9.01 1 -8.02 1 -7 1 C-6.67 1.66 -6.34 2.32 -6 3 C-3.13275314 2.42655063 -2.1385485 2.1385485 0 0 Z " fill="#D9D9D9" transform="translate(928,989)"/>
<path d="M0 0 C1.60080151 4.00200378 0.29279692 7.04556236 -1 11 C-1.33 11 -1.66 11 -2 11 C-2.33 9.02 -2.66 7.04 -3 5 C-4.65 5.33 -6.3 5.66 -8 6 C-5.51047079 3.33264727 -3.36591866 1.44253657 0 0 Z " fill="#4671CF" transform="translate(460,539)"/>
<path d="M0 0 C0.99 0 1.98 0 3 0 C3.33 0.66 3.66 1.32 4 2 C4.86625 1.7834375 4.86625 1.7834375 5.75 1.5625 C7.83333333 1.04166667 9.91666667 0.52083333 12 0 C11.4375 1.9375 11.4375 1.9375 10 4 C6.5625 4.9375 6.5625 4.9375 3 5 C1.0625 3.6875 1.0625 3.6875 0 2 C0 1.34 0 0.68 0 0 Z " fill="#D8D8D8" transform="translate(959,990)"/>
<path d="M0 0 C0.99 0.33 1.98 0.66 3 1 C1.68 4.63 0.36 8.26 -1 12 C-1.99 12 -2.98 12 -4 12 C-3.52309796 10.37433394 -3.04340334 8.74948689 -2.5625 7.125 C-2.29566406 6.22007812 -2.02882813 5.31515625 -1.75390625 4.3828125 C-1 2 -1 2 0 0 Z " fill="#DEDEDE" transform="translate(680,978)"/>
<path d="M0 0 C2.31 0.33 4.62 0.66 7 1 C7.33 1.99 7.66 2.98 8 4 C4.7 4 1.4 4 -2 4 C-1.34 2.68 -0.68 1.36 0 0 Z " fill="#0C0C0C" transform="translate(54,980)"/>
<path d="M0 0 C0.99 0 1.98 0 3 0 C3.33 0.66 3.66 1.32 4 2 C6.16874252 1.49396008 7.99967627 1.00016187 10 0 C10 1.32 10 2.64 10 4 C6.6875 4.6875 6.6875 4.6875 3 5 C1.0625 3.6875 1.0625 3.6875 0 2 C0 1.34 0 0.68 0 0 Z " fill="#D9D9D9" transform="translate(945,990)"/>
<path d="M0 0 C2.625 0.75 2.625 0.75 5 2 C5.33 2.66 5.66 3.32 6 4 C5.67 4.66 5.34 5.32 5 6 C-0.75 4.25 -0.75 4.25 -3 2 C-2.01 1.34 -1.02 0.68 0 0 Z " fill="#4B535E" transform="translate(337,914)"/>
<path d="M0 0 C3.375 0.25 3.375 0.25 7 1 C8.4375 3.0625 8.4375 3.0625 9 5 C8.34 5 7.68 5 7 5 C6.67 5.66 6.34 6.32 6 7 C5.67 5.68 5.34 4.36 5 3 C2.69 3 0.38 3 -2 3 C-1.34 2.01 -0.68 1.02 0 0 Z " fill="#DDDDDD" transform="translate(948,978)"/>
<path d="M0 0 C-3.465 2.97 -3.465 2.97 -7 6 C-7.33 4.35 -7.66 2.7 -8 1 C-4.59449725 -1.06762667 -4.18836538 -1.04709135 0 0 Z " fill="#4673D1" transform="translate(490,554)"/>
<path d="M0 0 C1.99097846 2.98646769 2.94124926 5.59687262 4 9 C3.34 9 2.68 9 2 9 C1.67 9.66 1.34 10.32 1 11 C0.63743142 9.5437328 0.28520207 8.08488815 -0.0625 6.625 C-0.35833984 5.40683594 -0.35833984 5.40683594 -0.66015625 4.1640625 C-1 2 -1 2 0 0 Z " fill="#4371D0" transform="translate(242,270)"/>
<path d="M0 0 C0.66 0 1.32 0 2 0 C2 0.66 2 1.32 2 2 C3.32 1.34 4.64 0.68 6 0 C5.67 1.98 5.34 3.96 5 6 C3.68 6 2.36 6 1 6 C0.67 4.02 0.34 2.04 0 0 Z " fill="#ECECEC" transform="translate(672,989)"/>
<path d="M0 0 C2.0625 2.25 2.0625 2.25 4 5 C3.75 7.3125 3.75 7.3125 3 9 C2.01 8.67 1.02 8.34 0 8 C-1.125 2.25 -1.125 2.25 0 0 Z " fill="#F6F8F9" transform="translate(275,344)"/>
<path d="M0 0 C0.66 0 1.32 0 2 0 C1.67 1.32 1.34 2.64 1 4 C-1.31 4.33 -3.62 4.66 -6 5 C-6.66 4.01 -7.32 3.02 -8 2 C-7.05125 2.04125 -6.1025 2.0825 -5.125 2.125 C-1.89755144 2.34973818 -1.89755144 2.34973818 0 0 Z " fill="#E2E2E2" transform="translate(813,990)"/>
<path d="M0 0 C0.33 0.99 0.66 1.98 1 3 C-0.25 4.5625 -0.25 4.5625 -2 6 C-4.1875 5.6875 -4.1875 5.6875 -6 5 C-6 4.01 -6 3.02 -6 2 C-4.02 1.34 -2.04 0.68 0 0 Z " fill="#1A1A1A" transform="translate(968,987)"/>
<path d="M0 0 C0.33 0.99 0.66 1.98 1 3 C-0.25 4.5625 -0.25 4.5625 -2 6 C-4.1875 5.6875 -4.1875 5.6875 -6 5 C-6 4.01 -6 3.02 -6 2 C-4.02 1.34 -2.04 0.68 0 0 Z " fill="#1A1A1A" transform="translate(927,987)"/>
<path d="M0 0 C1.79068573 2.6860286 2.66055791 4.6626589 3.625 7.6875 C3.88539063 8.49574219 4.14578125 9.30398438 4.4140625 10.13671875 C4.60742188 10.75160156 4.80078125 11.36648438 5 12 C1.73427415 9.82284943 0.20274779 8.72409925 -0.875 4.875 C-1 2 -1 2 0 0 Z " fill="#E9F1F6" transform="translate(234,325)"/>
<path d="M0 0 C0.33 0 0.66 0 1 0 C1.33 2.64 1.66 5.28 2 8 C2.99 8 3.98 8 5 8 C5 9.32 5 10.64 5 12 C3.35 12 1.7 12 0 12 C0 8.04 0 4.08 0 0 Z " fill="#5379D6" transform="translate(522,264)"/>
<path d="M0 0 C0.66 0 1.32 0 2 0 C1.34 2.31 0.68 4.62 0 7 C-0.33 7 -0.66 7 -1 7 C-1.33 8.98 -1.66 10.96 -2 13 C-2.33 13 -2.66 13 -3 13 C-3.44539877 4.2404908 -3.44539877 4.2404908 0 0 Z " fill="#5B626D" transform="translate(315,883)"/>
<path d="M0 0 C1.98 0.99 1.98 0.99 4 2 C4.33 1.34 4.66 0.68 5 0 C5.66 0.33 6.32 0.66 7 1 C6.34 3.31 5.68 5.62 5 8 C4.34 8 3.68 8 3 8 C2.01 5.36 1.02 2.72 0 0 Z " fill="#3F6ED2" transform="translate(216,280)"/>
<path d="M0 0 C0.66 0.33 1.32 0.66 2 1 C1.25749403 5.08378283 0.17076699 9.01939223 -1 13 C-1.33 13 -1.66 13 -2 13 C-2.16682272 8.07872966 -2.24828052 4.49656104 0 0 Z " fill="#6488D6" transform="translate(105,174)"/>
<path d="M0 0 C2.97 0.33 5.94 0.66 9 1 C9 1.66 9 2.32 9 3 C5.37 3 1.74 3 -2 3 C-1.34 2.01 -0.68 1.02 0 0 Z " fill="#FEFEFE" transform="translate(934,992)"/>
<path d="M0 0 C0.99 0.33 1.98 0.66 3 1 C1.19873295 3.27528469 0.3633843 3.94682181 -2.5625 4.375 C-3.7690625 4.189375 -3.7690625 4.189375 -5 4 C-5.66 3.01 -6.32 2.02 -7 1 C-5.5459375 1.0309375 -5.5459375 1.0309375 -4.0625 1.0625 C-1.12534105 1.35618499 -1.12534105 1.35618499 0 0 Z " fill="#E4E4E4" transform="translate(691,991)"/>
<path d="M0 0 C4.875 1.75 4.875 1.75 6 4 C3.69 4.33 1.38 4.66 -1 5 C-1 2 -1 2 0 0 Z " fill="#434B57" transform="translate(477,713)"/>
<path d="M0 0 C0.33 1.32 0.66 2.64 1 4 C1.66 4 2.32 4 3 4 C2.67 4.99 2.34 5.98 2 7 C-1.465 5.02 -1.465 5.02 -5 3 C-4.360625 2.690625 -3.72125 2.38125 -3.0625 2.0625 C-1.06389179 1.1654837 -1.06389179 1.1654837 0 0 Z " fill="#3F6FCF" transform="translate(237,509)"/>
<path d="M0 0 C0.33 0 0.66 0 1 0 C1.33 4.95 1.66 9.9 2 15 C1.01 15.33 0.02 15.66 -1 16 C-0.67 10.72 -0.34 5.44 0 0 Z " fill="#597ED8" transform="translate(524,242)"/>
<path d="M0 0 C1.32 0 2.64 0 4 0 C4.33 2.64 4.66 5.28 5 8 C4.01 8.495 4.01 8.495 3 9 C2.01 6.03 1.02 3.06 0 0 Z " fill="#426ED1" transform="translate(193,222)"/>
<path d="M0 0 C3.82946843 1.45255699 5.12050295 3.42895561 7 7 C3.74456771 6.65120368 2.98126893 5.97866739 0.75 3.4375 C-0.11625 2.2309375 -0.11625 2.2309375 -1 1 C-0.67 0.67 -0.34 0.34 0 0 Z " fill="#DEDEDE" transform="translate(790,988)"/>
<path d="M0 0 C0.33 0 0.66 0 1 0 C1.144375 1.0725 1.28875 2.145 1.4375 3.25 C1.83749442 5.91662949 2.27591924 8.41399729 3 11 C1.68 10.34 0.36 9.68 -1 9 C-0.67 6.03 -0.34 3.06 0 0 Z " fill="#C2C2C2" transform="translate(891,984)"/>
<path d="M0 0 C0.33 0 0.66 0 1 0 C0.75 3.375 0.75 3.375 0 7 C-2.0625 8.4375 -2.0625 8.4375 -4 9 C-3.29975694 5.73219907 -2.42301753 2.42301753 0 0 Z " fill="#C7C7C7" transform="translate(828,986)"/>
<path d="M0 0 C0.33 0 0.66 0 1 0 C0.75 3.375 0.75 3.375 0 7 C-2.0625 8.4375 -2.0625 8.4375 -4 9 C-3.29975694 5.73219907 -2.42301753 2.42301753 0 0 Z " fill="#C8C8C8" transform="translate(771,986)"/>
<path d="M0 0 C0.99 0.33 1.98 0.66 3 1 C2.67 3.64 2.34 6.28 2 9 C1.67 8.34 1.34 7.68 1 7 C0.34 7 -0.32 7 -1 7 C-0.67 4.69 -0.34 2.38 0 0 Z " fill="#4975D1" transform="translate(466,545)"/>
<path d="M0 0 C0.33 0.66 0.66 1.32 1 2 C1.66 2 2.32 2 3 2 C1.81323934 6.10801767 1.10551666 7.89448334 -2 11 C-1.34 7.37 -0.68 3.74 0 0 Z " fill="#4977D0" transform="translate(275,534)"/>
<path d="M0 0 C3.375 0.25 3.375 0.25 7 1 C8.4375 3.0625 8.4375 3.0625 9 5 C8.34 5 7.68 5 7 5 C6.67 5.66 6.34 6.32 6 7 C5.938125 6.38125 5.87625 5.7625 5.8125 5.125 C5.171081 2.72238859 5.171081 2.72238859 2.4375 1.75 C1.633125 1.5025 0.82875 1.255 0 1 C0 0.67 0 0.34 0 0 Z " fill="#DDDDDD" transform="translate(921,978)"/>
<path d="M0 0 C-0.804375 0.61875 -1.60875 1.2375 -2.4375 1.875 C-5.03874519 3.74164041 -5.03874519 3.74164041 -6 6 C-6.66 6 -7.32 6 -8 6 C-7.625 3.5625 -7.625 3.5625 -7 1 C-4.53721199 -0.231394 -2.7204945 -0.07159196 0 0 Z " fill="#DEDEDE" transform="translate(940,978)"/>
<path d="M0 0 C2 1 2 1 2 1 Z M-7 1 C-4.69 1 -2.38 1 0 1 C0 2.32 0 3.64 0 5 C-1.65 5 -3.3 5 -5 5 C-5 4.34 -5 3.68 -5 3 C-5.66 2.34 -6.32 1.68 -7 1 Z " fill="#48515D" transform="translate(389,849)"/>
<path d="M0 0 C2 1 2 1 2.8125 3.375 C3 6 3 6 1.5625 7.8125 C1.046875 8.204375 0.53125 8.59625 0 9 C-1.15941038 5.52176885 -0.70820884 3.54104422 0 0 Z " fill="#406DD1" transform="translate(811,482)"/>
<path d="M0 0 C2.35953094 2.35953094 2.49141413 3.77895617 3 7 C1.0625 6.6875 1.0625 6.6875 -1 6 C-1.33 5.01 -1.66 4.02 -2 3 C-1.34 2.01 -0.68 1.02 0 0 Z " fill="#406ECF" transform="translate(283,372)"/>
<path d="M0 0 C1.74627478 2.61941217 2.38722388 4.03824877 3 7 C1.68 7.33 0.36 7.66 -1 8 C-1.125 2.25 -1.125 2.25 0 0 Z " fill="#EFF5F8" transform="translate(190,216)"/>
<path d="M0 0 C1.99097846 2.98646769 2.94124926 5.59687262 4 9 C3.34 9 2.68 9 2 9 C1.896875 8.360625 1.79375 7.72125 1.6875 7.0625 C1.460625 6.381875 1.23375 5.70125 1 5 C0.01 4.67 -0.98 4.34 -2 4 C-1.34 2.68 -0.68 1.36 0 0 Z " fill="#4572CE" transform="translate(213,198)"/>
<path d="M0 0 C0.66 0 1.32 0 2 0 C2.1953125 6.0546875 2.1953125 6.0546875 2 8 C1.34 8.66 0.68 9.32 0 10 C-1.125 2.25 -1.125 2.25 0 0 Z " fill="#F3F3F3" transform="translate(955,983)"/>
<path d="M0 0 C0 2.31 0 4.62 0 7 C-0.99 6.34 -1.98 5.68 -3 5 C-3.99 4.67 -4.98 4.34 -6 4 C-2.25 0 -2.25 0 0 0 Z " fill="#F9F9F9" transform="translate(930,983)"/>
<path d="M0 0 C2.31 0.33 4.62 0.66 7 1 C7.33 2.32 7.66 3.64 8 5 C5.33333333 3.66666667 2.66666667 2.33333333 0 1 C0 0.67 0 0.34 0 0 Z " fill="#DFDFDF" transform="translate(807,982)"/>
<path d="M0 0 C2.475 0.495 2.475 0.495 5 1 C5 2.98 5 4.96 5 7 C4.01 6.67 3.02 6.34 2 6 C2.33 4.68 2.66 3.36 3 2 C2.01 1.67 1.02 1.34 0 1 C0 0.67 0 0.34 0 0 Z " fill="#EDEDED" transform="translate(938,979)"/>
<path d="M0 0 C1.32 0.33 2.64 0.66 4 1 C4 6 4 6 3 9 C2.01 6.03 1.02 3.06 0 0 Z " fill="#3F6DCD" transform="translate(223,496)"/>
<path d="M0 0 C2.18975773 3.28463659 2.99806563 6.20696275 4 10 C1.30227385 8.34655494 0.16098792 7.50773114 -0.8125 4.4375 C-1 2 -1 2 0 0 Z " fill="#4874D2" transform="translate(259,312)"/>
<path d="M0 0 C2.31 0.33 4.62 0.66 7 1 C6.01 2.485 6.01 2.485 5 4 C2.525 3.01 2.525 3.01 0 2 C0 1.34 0 0.68 0 0 Z " fill="#3D6CCE" transform="translate(615,281)"/>
<path d="M0 0 C2.1385485 2.1385485 2.42655063 3.13275314 3 6 C1.35 6.33 -0.3 6.66 -2 7 C-1.125 1.125 -1.125 1.125 0 0 Z " fill="#3B6BCF" transform="translate(276,270)"/>
<path d="M0 0 C0.598125 0.309375 1.19625 0.61875 1.8125 0.9375 C4.08956772 2.10209704 4.08956772 2.10209704 7 3 C7 3.66 7 4.32 7 5 C4.03 4.505 4.03 4.505 1 4 C0.67 2.68 0.34 1.36 0 0 Z " fill="#E8E8E8" transform="translate(860,990)"/>
<path d="M0 0 C2.31 0.33 4.62 0.66 7 1 C7.33 2.32 7.66 3.64 8 5 C5.04590299 3.62845496 2.55991624 2.01136276 0 0 Z " fill="#DDDDDD" transform="translate(776,982)"/>
<path d="M0 0 C2.31 0.33 4.62 0.66 7 1 C7.33 2.32 7.66 3.64 8 5 C5.04590299 3.62845496 2.55991624 2.01136276 0 0 Z " fill="#DDDDDD" transform="translate(699,982)"/>
<path d="M0 0 C0.66 1.32 1.32 2.64 2 4 C1.01 4.33 0.02 4.66 -1 5 C-1 7.31 -1 9.62 -1 12 C-1.33 12 -1.66 12 -2 12 C-2.28571429 3.42857143 -2.28571429 3.42857143 0 0 Z " fill="#5A80D2" transform="translate(609,366)"/>
<path d="M0 0 C2.95183101 2.95183101 3.08663988 5.95511947 4 10 C2.68 9.34 1.36 8.68 0 8 C0 5.36 0 2.72 0 0 Z " fill="#4A72D3" transform="translate(275,352)"/>
<path d="M0 0 C1.5 1.0625 1.5 1.0625 3 3 C3.1875 6.6875 3.1875 6.6875 3 10 C1.00902154 7.01353231 0.05875074 4.40312738 -1 1 C-0.67 0.67 -0.34 0.34 0 0 Z " fill="#3E6BCE" transform="translate(275,315)"/>
<path d="M0 0 C2.62187494 1.04874998 3.79371361 1.64931313 5.25 4.125 C5.4975 4.74375 5.745 5.3625 6 6 C4.35 5.67 2.7 5.34 1 5 C0.67 3.35 0.34 1.7 0 0 Z " fill="#426FCD" transform="translate(889,254)"/>
<path d="M0 0 C0.66 1.32 1.32 2.64 2 4 C1.34 4 0.68 4 0 4 C0.33 5.32 0.66 6.64 1 8 C-0.32 7.67 -1.64 7.34 -3 7 C-2.01 4.69 -1.02 2.38 0 0 Z " fill="#3B6BD2" transform="translate(220,216)"/>
<path d="M0 0 C0.33 0 0.66 0 1 0 C0.75 3.375 0.75 3.375 0 7 C-2.0625 8.4375 -2.0625 8.4375 -4 9 C-3.625 7.0625 -3.625 7.0625 -3 5 C-2.34 4.67 -1.68 4.34 -1 4 C-0.34786708 1.97536745 -0.34786708 1.97536745 0 0 Z " fill="#C7C7C7" transform="translate(728,986)"/>
<path d="M0 0 C0 2.31 0 4.62 0 7 C-0.99 7.33 -1.98 7.66 -3 8 C-3 5.69 -3 3.38 -3 1 C-1 0 -1 0 0 0 Z " fill="#C8C8C8" transform="translate(887,983)"/>
<path d="M0 0 C0.66 0 1.32 0 2 0 C1.67 2.31 1.34 4.62 1 7 C0.01 7 -0.98 7 -2 7 C-2.125 4.625 -2.125 4.625 -2 2 C-1.34 1.34 -0.68 0.68 0 0 Z " fill="#EFEFEF" transform="translate(961,979)"/>
<path d="M0 0 C1.65 0 3.3 0 5 0 C5 0.99 5 1.98 5 3 C4.01 3.66 3.02 4.32 2 5 C1.34 3.35 0.68 1.7 0 0 Z " fill="#434C58" transform="translate(674,905)"/>
<path d="M0 0 C0.66 0.66 1.32 1.32 2 2 C1.625 5.125 1.625 5.125 1 8 C0.34 7.34 -0.32 6.68 -1 6 C-0.67 5.34 -0.34 4.68 0 4 C-0.66 3.67 -1.32 3.34 -2 3 C-1.34 2.01 -0.68 1.02 0 0 Z " fill="#48505E" transform="translate(317,879)"/>
<path d="M0 0 C0.66 0.33 1.32 0.66 2 1 C1.5020163 4.73487777 1.12508244 6.81237635 -1 10 C-0.67 6.7 -0.34 3.4 0 0 Z " fill="#577FD7" transform="translate(272,547)"/>
<path d="M0 0 C0.99 0.33 1.98 0.66 3 1 C2.6875 2.875 2.6875 2.875 2 5 C1.01 5.66 0.02 6.32 -1 7 C-1 4.37886292 -0.68707555 2.49064888 0 0 Z " fill="#4472D0" transform="translate(502,536)"/>
</svg>
